<?xml version="1.0" encoding="utf-8"?>
<!-- Generator: Adobe Illustrator 24.0.1, SVG Export Plug-In . SVG Version: 6.00 Build 0)  -->
<svg version="1.1" id="Layer_1" xmlns="http://www.w3.org/2000/svg" xmlns:xlink="http://www.w3.org/1999/xlink" x="0px" y="0px"
	 viewBox="0 0 123.58 59.35" style="enable-background:new 0 0 123.58 59.35;" xml:space="preserve">
<style type="text/css">
	.st0{fill:#FFFFFF;}
</style>
<g>
	<g>
		<path class="st0" d="M40.88,7.17L40.88,7.17c3.45,0,6.26,2.8,6.26,6.26v37.44h-6.26V31.85H16.33v19.02h-6.26V7.17h6.26v18.89
			h24.55V7.17z"/>
		<path class="st0" d="M69.51,50.86v-3.69c-1.21,1.32-2.59,2.35-4.14,3.09c-1.55,0.74-3.1,1.1-4.64,1.1c-1.81,0-3.49-0.45-5.02-1.36
			c-1.53-0.91-2.69-2.14-3.47-3.69c-0.78-1.55-1.17-4.13-1.17-7.74V22.09h0c3.14,0,5.69,2.55,5.69,5.69v10.71
			c0,3.02,0.43,5.13,1.3,6.32c0.86,1.2,2.38,1.8,4.55,1.8c2.71,0,5.01-1.32,6.91-3.97V22.09l0,0c3.14,0,5.69,2.55,5.69,5.69v23.08
			H69.51z"/>
		<path class="st0" d="M78.15,7.17L78.15,7.17c3.14,0,5.69,2.55,5.69,5.69v11.29c2.46-1.79,5.09-2.69,7.88-2.69
			c3.65,0,6.63,1.38,8.94,4.13c2.31,2.75,3.47,6.29,3.47,10.6c0,4.63-1.38,8.31-4.14,11.06c-2.76,2.74-6.46,4.11-11.09,4.11
			c-1.86,0-3.81-0.2-5.86-0.59c-2.05-0.4-3.69-0.9-4.89-1.5V7.17z M83.84,29.6v15.57c1.94,0.58,3.93,0.88,5.97,0.88
			c2.52,0,4.58-0.9,6.18-2.69c1.59-1.79,2.39-4.1,2.39-6.91c0-2.86-0.75-5.18-2.24-6.97c-1.49-1.79-3.44-2.69-5.83-2.69
			C88.19,26.78,86.03,27.72,83.84,29.6z"/>
	</g>
	<g>
		<rect x="67.02" y="11.26" class="st0" width="5.23" height="5.23"/>
		<rect x="108.28" y="11.26" class="st0" width="5.23" height="5.23"/>
	</g>
	<g>
		<rect x="103.05" y="16.49" class="st0" width="5.23" height="5.23"/>
	</g>
	<rect x="87.65" y="33.8" class="st0" width="5.23" height="5.23"/>
</g>
</svg>
