<?xml version="1.0" encoding="utf-8"?>
<!-- Generator: Adobe Illustrator 24.0.1, SVG Export Plug-In . SVG Version: 6.00 Build 0)  -->
<svg version="1.1" id="Layer_1" xmlns="http://www.w3.org/2000/svg" xmlns:xlink="http://www.w3.org/1999/xlink" x="0px" y="0px"
	 viewBox="0 0 50 50" style="enable-background:new 0 0 50 50;" xml:space="preserve">
<style type="text/css">
	.st0{fill:none;stroke:#000000;stroke-width:1.1947;stroke-linecap:round;stroke-miterlimit:10;}
</style>
<g>
	<g>
		<g>
			<path class="st0" d="M14.84,24.18"/>
		</g>
		<g>
			<path class="st0" d="M35.38,25.94"/>
		</g>
		<g>
			<path class="st0" d="M34.19,44.72H15.81c-1.34,0-2.42-1.08-2.42-2.42V7.7c0-1.34,1.08-2.42,2.42-2.42h18.38
				c1.34,0,2.42,1.08,2.42,2.42v34.6C36.61,43.64,35.53,44.72,34.19,44.72z"/>
			<line class="st0" x1="15.88" y1="8.25" x2="34.12" y2="8.25"/>
			<line class="st0" x1="15.88" y1="41.75" x2="34.12" y2="41.75"/>
		</g>
	</g>
	<g>
		<g>
			<path class="st0" d="M29.95,30.51c-0.35-0.29-0.78-0.82-0.58-1.58c0.32-1.21,1.11-4.15,1.11-4.15c0.54-2.03-0.66-4.13-2.7-4.67
				l-0.36-0.1l-0.01,0l-0.36-0.1c-2.03-0.54-4.13,0.66-4.67,2.7c0,0-0.79,2.95-1.11,4.15c-0.2,0.77-0.85,1.01-1.29,1.08
				c-0.28,0.05-0.5,0.25-0.57,0.52c-0.1,0.38,0.12,0.77,0.5,0.87l4.7,1.26l0.01,0l4.7,1.26c0.38,0.1,0.77-0.12,0.87-0.5
				C30.26,30.98,30.17,30.69,29.95,30.51z"/>
			<path class="st0" d="M25.89,31.14c-0.2,0.74-0.96,1.19-1.71,0.99c-0.74-0.2-1.19-0.96-0.99-1.71"/>
			<path class="st0" d="M26.27,19.66c0.17-0.64,0.83-1.02,1.46-0.85s1.02,0.83,0.85,1.46"/>
		</g>
	</g>
</g>
</svg>
