<?xml version="1.0" encoding="utf-8"?>
<!-- Generator: Adobe Illustrator 24.0.1, SVG Export Plug-In . SVG Version: 6.00 Build 0)  -->
<svg version="1.1" id="Layer_1" xmlns="http://www.w3.org/2000/svg" xmlns:xlink="http://www.w3.org/1999/xlink" x="0px" y="0px"
	 viewBox="0 0 50 50" style="enable-background:new 0 0 50 50;" xml:space="preserve">
<style type="text/css">
	.st0{fill:none;stroke:#000000;stroke-width:1.3672;stroke-linecap:round;stroke-miterlimit:10;}
</style>
<g>
	<path class="st0" d="M8.12,28.28c7.3,1.19,6.83-3.64,6.83-3.64c0-5.66,4.59-10.25,10.25-10.25s10.25,4.59,10.25,10.25
		c0,0-0.11,4.64,6.51,4.05"/>
	<path class="st0" d="M9.75,33c7.79,0.12,8.79-4.65,8.6-6.35c-0.08-0.7-0.1-1.41,0.04-2.1c0.69-3.41,3.68-6.4,7.15-6.4
		c3.97,0,7.18,3.22,7.18,7.18c0,0,0.14,6.72-3.49,10.6"/>
	<path class="st0" d="M21.96,42.53c0,0,3.72-2.79,7.67-0.23"/>
	<path class="st0" d="M18.2,41.28c0,0,2.42-1.17,5.39-2.12c3.09-0.98,5.93-1.39,9.76,1.63"/>
	<path class="st0" d="M12.31,36.95c3.84-0.58,5.93-2.44,7.67-4.88c1.74-2.44,1.28-6.45,1.28-6.45c0-2.34,1.9-4.24,4.24-4.24
		s4.24,1.9,4.24,4.24c0,0,0.21,5.97-4.47,10.59"/>
	<path class="st0" d="M25.1,24.86c0,0,2.79,9.18-9.88,14.53"/>
	<path class="st0" d="M34.27,30.15c0,0,2,2.87,6.76,2.85"/>
	<path class="st0" d="M32.85,33.48c0,0,2.92,2.66,6.16,2.91"/>
	<path class="st0" d="M31.26,36.02c0,0,2.69,2.47,5.45,2.83"/>
	<path class="st0" d="M42.07,24.28c-3.49,0.58-3.84-2.32-3.84-2.32c-1.24-6.06-6.6-10.62-13.03-10.62c-5.92,0-10.24,4.06-12.48,9.27
		c-0.38,0.89-1.35,1.37-2.29,1.17h0c-1.17-0.24-1.93-1.45-1.57-2.59c2.16-6.84,8.76-11.72,16.34-11.72c4.64,0,8.85,1.84,11.94,4.83
		c0,0,2.15,1.98,3.89,5.84"/>
	<path class="st0" d="M7.93,24.1c0,0,1.81,1.31,4.24,0.44"/>
</g>
</svg>
