<?xml version="1.0" encoding="utf-8"?>
<!-- Generator: Adobe Illustrator 24.0.1, SVG Export Plug-In . SVG Version: 6.00 Build 0)  -->
<svg version="1.1" id="Layer_1" xmlns="http://www.w3.org/2000/svg" xmlns:xlink="http://www.w3.org/1999/xlink" x="0px" y="0px"
	 viewBox="0 0 50 50" style="enable-background:new 0 0 50 50;" xml:space="preserve">
<style type="text/css">
	.st0{fill:none;stroke:#000000;stroke-width:1.1947;stroke-linecap:round;stroke-miterlimit:10;}
</style>
<g>
	<circle class="st0" cx="11.4" cy="24.83" r="4.86"/>
	<path class="st0" d="M11.08,15.15c4.68,0.01,8.64,2.97,9.81,7.24l25.26,0c1.19,0,2.25,0.89,2.31,2.07
		c0.07,1.26-0.94,2.31-2.19,2.31h-1.18v2.28c0,0.97-0.79,1.76-1.76,1.76h-3.39c-0.97,0-1.76-0.79-1.76-1.76v-2.28h-17.1
		c-0.83,4.6-4.85,8.09-9.69,8.09c-5.57,0-10.07-4.63-9.85-10.25c0.08-2.11,0.86-4.08,2.1-5.66C3.65,18.95,6.13,15.13,11.08,15.15z"
		/>
</g>
</svg>
