<?xml version="1.0" encoding="utf-8"?>
<!-- Generator: Adobe Illustrator 24.0.1, SVG Export Plug-In . SVG Version: 6.00 Build 0)  -->
<svg version="1.1" id="Layer_1" xmlns="http://www.w3.org/2000/svg" xmlns:xlink="http://www.w3.org/1999/xlink" x="0px" y="0px"
	 viewBox="0 0 50 50" style="enable-background:new 0 0 50 50;" xml:space="preserve">
<style type="text/css">
	.st0{fill:none;stroke:#000000;stroke-width:1.3672;stroke-linecap:round;stroke-miterlimit:10;}
</style>
<g>
	<g>
		<path class="st0" d="M42.99,33.96v6.05c0,1.98-1.6,3.58-3.58,3.58H10.59c-1.98,0-3.58-1.6-3.58-3.58V9.99
			c0-1.98,1.6-3.58,3.58-3.58h28.82c1.98,0,3.58,1.6,3.58,3.58v20.17V33.96z"/>
	</g>
	<line class="st0" x1="11.9" y1="13.17" x2="38.1" y2="13.17"/>
	<line class="st0" x1="11.9" y1="19.05" x2="38.1" y2="19.05"/>
	<line class="st0" x1="11.9" y1="24.94" x2="38.1" y2="24.94"/>
	<g>
		<path class="st0" d="M13.28,35.32l2.96-2.96c0.48-0.48,1.26-0.48,1.75,0l2.96,2.96"/>
		<path class="st0" d="M36.72,32l-2.96,2.96c-0.48,0.48-1.26,0.48-1.75,0L29.06,32"/>
	</g>
</g>
</svg>
