<?xml version="1.0" encoding="utf-8"?>
<!-- Generator: Adobe Illustrator 24.0.1, SVG Export Plug-In . SVG Version: 6.00 Build 0)  -->
<svg version="1.1" id="Layer_1" xmlns="http://www.w3.org/2000/svg" xmlns:xlink="http://www.w3.org/1999/xlink" x="0px" y="0px"
	 viewBox="0 0 63.31 101.45" style="enable-background:new 0 0 63.31 101.45;" xml:space="preserve">
<style type="text/css">
	.st0{font-family:'ProximaNova-Semibold';}
	.st1{font-size:12.9654px;}
	.st2{font-family:'ProximaNova-Light';}
	.st3{font-size:9.4542px;}
</style>
<g>
	<g>
		<path d="M56.03,37.78H31.13c-0.38-1.24-1.55-2.13-2.92-2.1c-1.53,0.04-2.81,1.26-2.9,2.79c-0.11,1.73,1.27,3.17,2.98,3.17
			c1.34,0,2.47-0.88,2.85-2.1h24.91c0.13,0,0.24-0.11,0.24-0.24v-1.28C56.27,37.88,56.17,37.78,56.03,37.78z"/>
		<path d="M29.03,46.49h-1.68c-0.29,0-0.53,0.24-0.53,0.53v1.68c0,0.29,0.24,0.53,0.53,0.53h1.68c0.29,0,0.53-0.24,0.53-0.53v-1.68
			C29.56,46.73,29.32,46.49,29.03,46.49z"/>
		<path d="M35.46,1.64H21.09c-0.07,0-0.14,0.06-0.14,0.14v63.84c0,0.31,0.25,0.56,0.56,0.56h13.53c0.31,0,0.56-0.25,0.56-0.56V1.78
			C35.6,1.7,35.54,1.64,35.46,1.64z M29.32,55.21v2.83c0,0.62-0.51,1.13-1.13,1.13s-1.13-0.51-1.13-1.13v-2.83
			c-0.45-0.34-0.74-0.88-0.74-1.49c0-1.03,0.84-1.87,1.87-1.87c1.03,0,1.87,0.84,1.87,1.87C30.07,54.33,29.77,54.87,29.32,55.21z
			 M28.19,50.85c-1.65,0-2.98-1.34-2.98-2.98s1.34-2.98,2.98-2.98c1.65,0,2.98,1.34,2.98,2.98S29.84,50.85,28.19,50.85z
			 M28.28,43.91c-2.9,0-5.25-2.35-5.25-5.25c0-2.9,2.35-5.25,5.25-5.25c2.9,0,5.25,2.35,5.25,5.25
			C33.53,41.56,31.18,43.91,28.28,43.91z M34.9,26.38c0,0.07-0.04,0.13-0.1,0.17l-12.86,7.33c-0.13,0.07-0.29-0.02-0.29-0.17V2.57
			c0-0.07,0.06-0.14,0.14-0.14h12.97c0.07,0,0.14,0.06,0.14,0.14V26.38z"/>
		<g>
			<path d="M23.88,10.31h-0.11V9.16l-0.21,0.22l-0.07-0.07l0.29-0.3h0.1V10.31z"/>
			<path d="M28.53,10.31h-0.86v-0.09c0.1-0.08,0.19-0.15,0.25-0.2c0.06-0.05,0.13-0.11,0.2-0.18c0.07-0.07,0.12-0.12,0.16-0.17
				s0.07-0.1,0.09-0.15c0.02-0.05,0.04-0.1,0.04-0.15c0-0.09-0.03-0.15-0.09-0.2c-0.06-0.04-0.13-0.07-0.21-0.07
				c-0.08,0-0.15,0.02-0.21,0.05c-0.06,0.03-0.11,0.07-0.15,0.12l-0.08-0.07c0.05-0.06,0.11-0.11,0.18-0.15
				c0.08-0.04,0.16-0.05,0.25-0.05c0.11,0,0.2,0.03,0.28,0.09c0.08,0.06,0.12,0.15,0.12,0.27c0,0.07-0.02,0.14-0.05,0.21
				c-0.03,0.07-0.08,0.14-0.15,0.22c-0.07,0.08-0.14,0.14-0.21,0.2c-0.07,0.06-0.16,0.13-0.27,0.22h0.68V10.31z"/>
			<path d="M32.73,10.33c-0.1,0-0.19-0.02-0.26-0.06c-0.08-0.04-0.14-0.09-0.18-0.15l0.08-0.07c0.08,0.12,0.21,0.18,0.36,0.18
				c0.1,0,0.18-0.02,0.24-0.07c0.06-0.05,0.09-0.12,0.09-0.2c0-0.09-0.03-0.16-0.1-0.2c-0.06-0.04-0.15-0.07-0.25-0.07
				c-0.05,0-0.09,0-0.12,0v-0.1c0.01,0,0.05,0,0.12,0c0.09,0,0.17-0.02,0.23-0.06c0.06-0.04,0.09-0.1,0.09-0.18
				c0-0.08-0.03-0.14-0.09-0.18c-0.06-0.04-0.13-0.07-0.22-0.07c-0.13,0-0.25,0.06-0.35,0.17L32.3,9.19c0.11-0.13,0.25-0.2,0.42-0.2
				c0.12,0,0.22,0.03,0.3,0.09c0.08,0.06,0.12,0.14,0.12,0.25c0,0.06-0.02,0.11-0.05,0.16c-0.03,0.05-0.07,0.08-0.11,0.1
				c-0.04,0.02-0.08,0.03-0.12,0.04c0.07,0.01,0.14,0.04,0.2,0.1c0.06,0.06,0.1,0.13,0.1,0.23c0,0.11-0.04,0.2-0.12,0.27
				C32.97,10.29,32.86,10.33,32.73,10.33z"/>
			<path d="M24.23,14.97h-0.11v-0.35h-0.61v-0.1l0.58-0.84h0.15v0.84h0.19v0.1h-0.19V14.97z M24.12,14.52v-0.73l-0.5,0.73H24.12z"/>
			<path d="M28.1,15c-0.19,0-0.34-0.07-0.44-0.21l0.07-0.07c0.09,0.12,0.21,0.18,0.36,0.18c0.09,0,0.17-0.03,0.23-0.09
				c0.06-0.06,0.09-0.13,0.09-0.22c0-0.1-0.03-0.17-0.09-0.23c-0.06-0.06-0.14-0.09-0.23-0.09c-0.12,0-0.22,0.04-0.32,0.13
				l-0.08-0.04v-0.68h0.75v0.1h-0.64v0.51c0.08-0.08,0.19-0.12,0.31-0.12c0.12,0,0.21,0.04,0.29,0.11c0.08,0.07,0.12,0.17,0.12,0.3
				c0,0.13-0.04,0.23-0.13,0.3C28.32,14.96,28.22,15,28.1,15z"/>
			<path d="M32.76,15c-0.07,0-0.13-0.01-0.18-0.04s-0.1-0.06-0.14-0.1c-0.04-0.04-0.07-0.09-0.09-0.15
				c-0.02-0.06-0.04-0.12-0.05-0.18c-0.01-0.06-0.02-0.13-0.02-0.2c0-0.12,0.02-0.23,0.05-0.32c0.03-0.1,0.09-0.18,0.16-0.25
				c0.08-0.07,0.17-0.1,0.28-0.1c0.15,0,0.26,0.06,0.35,0.17l-0.06,0.08c-0.07-0.1-0.17-0.14-0.29-0.14c-0.07,0-0.13,0.02-0.18,0.05
				c-0.05,0.03-0.09,0.08-0.12,0.13c-0.03,0.06-0.05,0.12-0.06,0.18c-0.01,0.06-0.02,0.13-0.02,0.21c0,0.03,0,0.05,0,0.06
				c0.03-0.05,0.08-0.1,0.15-0.15s0.15-0.07,0.23-0.07c0.12,0,0.22,0.04,0.3,0.11s0.12,0.17,0.12,0.3c0,0.11-0.04,0.21-0.12,0.29
				C33,14.96,32.89,15,32.76,15z M32.76,14.9c0.1,0,0.18-0.03,0.24-0.1c0.06-0.06,0.09-0.14,0.09-0.21c0-0.1-0.03-0.18-0.09-0.23
				c-0.06-0.05-0.14-0.08-0.24-0.08c-0.07,0-0.14,0.02-0.2,0.06c-0.06,0.04-0.12,0.09-0.15,0.16c0.01,0.07,0.02,0.13,0.04,0.18
				c0.02,0.06,0.06,0.11,0.11,0.15C32.62,14.87,32.68,14.9,32.76,14.9z"/>
			<path d="M23.8,19.64h-0.12l0.54-1.2H23.5v-0.1h0.85v0.08L23.8,19.64z"/>
			<path d="M28.31,19.57c-0.08,0.06-0.19,0.1-0.32,0.1c-0.13,0-0.23-0.03-0.32-0.1c-0.08-0.06-0.13-0.15-0.13-0.25
				c0-0.08,0.03-0.16,0.09-0.22c0.06-0.06,0.14-0.1,0.23-0.13c-0.09-0.02-0.16-0.06-0.21-0.11c-0.06-0.05-0.09-0.12-0.09-0.2
				c0-0.11,0.04-0.19,0.13-0.25c0.08-0.06,0.18-0.09,0.29-0.09c0.11,0,0.21,0.03,0.29,0.09c0.08,0.06,0.13,0.14,0.13,0.25
				c0,0.08-0.03,0.15-0.09,0.2c-0.06,0.05-0.13,0.09-0.21,0.11c0.09,0.02,0.17,0.07,0.23,0.13c0.06,0.06,0.09,0.13,0.09,0.22
				C28.44,19.42,28.39,19.5,28.31,19.57z M28,19.56c0.09,0,0.17-0.02,0.23-0.07s0.1-0.11,0.1-0.18c0-0.05-0.01-0.09-0.04-0.13
				c-0.03-0.04-0.06-0.07-0.1-0.09c-0.04-0.02-0.07-0.04-0.11-0.05c-0.03-0.01-0.06-0.02-0.09-0.02c-0.02,0-0.05,0.01-0.09,0.02
				c-0.03,0.01-0.07,0.03-0.11,0.05c-0.04,0.02-0.07,0.05-0.1,0.09c-0.03,0.04-0.04,0.08-0.04,0.13c0,0.08,0.03,0.14,0.1,0.18
				S27.9,19.56,28,19.56z M28,18.93c0.03-0.01,0.06-0.01,0.08-0.02c0.03-0.01,0.06-0.02,0.1-0.04c0.04-0.02,0.07-0.04,0.09-0.08
				c0.02-0.03,0.03-0.07,0.03-0.11c0-0.08-0.03-0.13-0.09-0.18c-0.06-0.04-0.13-0.07-0.22-0.07c-0.09,0-0.16,0.02-0.22,0.07
				c-0.06,0.04-0.09,0.1-0.09,0.18c0,0.04,0.01,0.08,0.03,0.11s0.05,0.06,0.09,0.08c0.04,0.02,0.07,0.03,0.1,0.04
				C27.94,18.91,27.97,18.92,28,18.93z"/>
			<path d="M32.6,19.66c-0.15,0-0.26-0.06-0.35-0.17l0.07-0.08c0.07,0.1,0.17,0.14,0.28,0.14c0.07,0,0.13-0.02,0.18-0.05
				c0.05-0.03,0.09-0.08,0.12-0.13c0.03-0.06,0.05-0.12,0.06-0.18c0.01-0.06,0.02-0.13,0.02-0.21v-0.06
				c-0.03,0.05-0.08,0.1-0.15,0.15c-0.07,0.05-0.15,0.07-0.23,0.07c-0.12,0-0.22-0.04-0.3-0.11c-0.08-0.07-0.12-0.17-0.12-0.3
				c0-0.11,0.04-0.21,0.12-0.29c0.08-0.08,0.18-0.12,0.32-0.12c0.07,0,0.13,0.01,0.18,0.04c0.05,0.02,0.1,0.06,0.14,0.1
				c0.04,0.04,0.07,0.09,0.09,0.15c0.02,0.06,0.04,0.12,0.05,0.18c0.01,0.06,0.02,0.13,0.02,0.2c0,0.07-0.01,0.13-0.02,0.2
				c-0.01,0.06-0.03,0.12-0.06,0.18c-0.03,0.06-0.06,0.11-0.09,0.15c-0.04,0.04-0.08,0.08-0.14,0.1
				C32.73,19.65,32.67,19.66,32.6,19.66z M32.62,19.05c0.07,0,0.14-0.02,0.2-0.06c0.06-0.04,0.12-0.09,0.15-0.16
				c-0.01-0.07-0.02-0.13-0.04-0.18c-0.02-0.06-0.06-0.11-0.11-0.15c-0.05-0.04-0.12-0.07-0.2-0.07c-0.1,0-0.18,0.03-0.24,0.1
				c-0.06,0.06-0.09,0.14-0.09,0.21c0,0.1,0.03,0.18,0.09,0.23C32.45,19.02,32.53,19.05,32.62,19.05z"/>
			<path d="M23.8,23.53h-0.07l0.01-0.23l-0.19,0.12l-0.04-0.06l0.2-0.1l-0.2-0.1l0.04-0.06l0.19,0.12l-0.01-0.23h0.07l-0.01,0.23
				l0.19-0.12l0.04,0.06l-0.2,0.1l0.2,0.1l-0.04,0.06l-0.19-0.12L23.8,23.53z"/>
			<path d="M28.43,24.27c-0.06,0.04-0.14,0.06-0.22,0.06c-0.08,0-0.16-0.02-0.22-0.06c-0.06-0.04-0.12-0.09-0.15-0.16
				c-0.04-0.07-0.06-0.14-0.08-0.21c-0.02-0.08-0.03-0.15-0.03-0.24s0.01-0.16,0.03-0.24c0.02-0.08,0.04-0.15,0.08-0.21
				c0.04-0.07,0.09-0.12,0.15-0.16c0.06-0.04,0.14-0.06,0.22-0.06c0.08,0,0.16,0.02,0.22,0.06c0.06,0.04,0.11,0.09,0.15,0.16
				c0.04,0.07,0.06,0.14,0.08,0.21c0.02,0.08,0.03,0.15,0.03,0.24c0,0.08-0.01,0.16-0.03,0.24c-0.02,0.08-0.05,0.15-0.08,0.21
				C28.54,24.18,28.49,24.23,28.43,24.27z M28.21,24.23c0.06,0,0.12-0.02,0.17-0.05c0.05-0.03,0.09-0.08,0.11-0.14
				c0.03-0.06,0.05-0.12,0.06-0.18c0.01-0.06,0.02-0.13,0.02-0.2c0-0.07-0.01-0.14-0.02-0.2c-0.01-0.06-0.03-0.12-0.06-0.18
				c-0.03-0.06-0.06-0.1-0.11-0.13c-0.05-0.03-0.11-0.05-0.17-0.05c-0.07,0-0.12,0.02-0.17,0.05c-0.05,0.03-0.09,0.08-0.11,0.13
				c-0.03,0.06-0.05,0.12-0.06,0.18c-0.01,0.06-0.02,0.13-0.02,0.2c0,0.07,0.01,0.14,0.02,0.2c0.01,0.06,0.03,0.12,0.06,0.18
				c0.03,0.06,0.06,0.1,0.11,0.14C28.09,24.21,28.14,24.23,28.21,24.23z"/>
			<path d="M32.37,24.31h-0.09l0.12-0.36h-0.23l-0.12,0.36h-0.09l0.12-0.36h-0.22l0.03-0.08h0.22l0.14-0.41h-0.22l0.02-0.08h0.22
				l0.12-0.36h0.09l-0.12,0.36h0.23l0.12-0.36h0.09l-0.12,0.36h0.22l-0.02,0.08h-0.22l-0.14,0.41h0.23l-0.03,0.08H32.5L32.37,24.31z
				 M32.43,23.87l0.14-0.41h-0.23l-0.14,0.41H32.43z"/>
		</g>
	</g>
	<text transform="matrix(1 0 0 1 7.0388 85.9595)"><tspan x="0" y="0" class="st0 st1">Armour</tspan><tspan x="0.55" y="11.35" class="st2 st3">Door Lock</tspan></text>
</g>
</svg>
