<?xml version="1.0" encoding="utf-8"?>
<!-- Generator: Adobe Illustrator 24.0.1, SVG Export Plug-In . SVG Version: 6.00 Build 0)  -->
<svg version="1.1" id="Layer_1" xmlns="http://www.w3.org/2000/svg" xmlns:xlink="http://www.w3.org/1999/xlink" x="0px" y="0px"
	 viewBox="0 0 53.28 53.26" style="enable-background:new 0 0 53.28 53.26;" xml:space="preserve">
<style type="text/css">
	.st0{fill:none;stroke:#000000;stroke-width:1.056;stroke-linecap:round;stroke-miterlimit:10;}
</style>
<g id="Group_383" transform="translate(-55.944 -179.193)">
	<g id="Group_382">
		<path id="Path_245" class="st0" d="M69.21,214.84l0.35-0.49c1.19-1.64,1.66-3.69,1.31-5.68l-0.15-0.86
			c-0.37-2.1,0.21-4.26,1.59-5.9l1.88-2.24l2.48,2.48l6.99-6.77c1-0.97,2.58-1,3.61-0.07l0.08,0.07c1.09,0.97,1.19,2.65,0.22,3.74
			c-0.03,0.03-0.06,0.07-0.1,0.1l0,0l0.67-0.68c1.07-1.08,2.8-1.1,3.9-0.06l0,0c1.1,1.05,1.16,2.79,0.13,3.91l-1.05,1.13l1.08-1.17
			c0.84-0.91,2.25-0.96,3.15-0.12c0.01,0.01,0.02,0.02,0.04,0.03l0,0c0.89,0.86,0.91,2.27,0.05,3.15c-0.01,0.01-0.02,0.02-0.03,0.04
			l-0.93,0.91l0,0c0.67-0.66,1.74-0.68,2.43-0.04l0.5,0.46c0.71,0.66,0.76,1.77,0.1,2.49c0,0-0.01,0.01-0.01,0.01l-9.96,10.63
			c-0.89,0.94-2.12,1.48-3.42,1.48l0,0c-1.88,0-3.67,0.76-4.98,2.1l-0.66,0.68L69.21,214.84z"/>
		
			<rect id="Rectangle_111" x="68.34" y="211.66" transform="matrix(0.7071 -0.7071 0.7071 0.7071 -135.6777 115.3564)" class="st0" width="6.13" height="19.6"/>
		<path id="Path_246" class="st0" d="M94.99,212.22l8.78,8.72c1.29,1.29,1.29,3.38,0,4.67c0,0,0,0,0,0l0,0
			c-1.29,1.29-3.38,1.29-4.67,0c0,0,0,0,0,0l-8.78-8.72"/>
		<path id="Path_247" class="st0" d="M76.67,202.15l-4.2-4.23c0,0-5.66,1.66-9.06-1.62c-3.4-3.28-3.21-7.79-2.66-8.56s1.75,0,1.75,0
			l2.97,2.67c0.78,0.7,1.99,0.65,2.7-0.13l1.4-1.53c0.7-0.76,0.67-1.93-0.06-2.66l-2.85-2.85c0,0-1.31-0.99,0.55-1.86
			s6.93,0.18,9.31,4.53c1.1,2.15,1.19,4.68,0.23,6.9l4.62,4.79"/>
	</g>
	<circle id="Ellipse_22" class="st0" cx="101.76" cy="223.53" r="1.23"/>
</g>
</svg>
