<?xml version="1.0" encoding="utf-8"?>
<!-- Generator: Adobe Illustrator 24.0.1, SVG Export Plug-In . SVG Version: 6.00 Build 0)  -->
<svg version="1.1" id="Layer_1" xmlns="http://www.w3.org/2000/svg" xmlns:xlink="http://www.w3.org/1999/xlink" x="0px" y="0px"
	 viewBox="0 0 53.28 53.26" style="enable-background:new 0 0 53.28 53.26;" xml:space="preserve">
<style type="text/css">
	.st0{fill:none;stroke:#000000;stroke-width:1.056;stroke-linecap:round;stroke-miterlimit:10;}
</style>
<g id="Group_378" transform="translate(-533.021 -180.732)">
	<path id="Path_241" class="st0" d="M558.75,211.52l16.37-15.81l3.27-1.94l4.67-7.59l-0.49-0.51l-0.46-0.48l-0.49-0.51l-7.75,4.4
		l-2.05,3.2l-16.37,15.81l-1.69-0.1c-1.57-0.09-3,0.89-3.47,2.39l-0.21,0.66l-12.51,12.08c-1.53,1.48-1.75,3.84-0.53,5.58
		l-0.04,0.04l0,0c0.08,0.08,0.16,0.15,0.24,0.23c0.07,0.09,0.14,0.17,0.22,0.25l0.04-0.04c1.7,1.28,4.07,1.14,5.6-0.34l12.51-12.08
		l0.67-0.19c1.51-0.42,2.55-1.81,2.51-3.38L558.75,211.52z"/>
	<line id="Line_37" class="st0" x1="555.45" y1="208.1" x2="558.75" y2="211.52"/>
	<path id="Path_242" class="st0" d="M550.08,211.05l2.76,2.87l-12.58,12.15"/>
	<line id="Line_38" class="st0" x1="552.84" y1="213.92" x2="555.61" y2="216.78"/>
</g>
<g id="Group_380" transform="translate(-533.021 -180.732)">
	<g id="Group_379">
		<path id="Path_243" class="st0" d="M560.51,203.04l-6.24-6.42c0.99-2.36,0.87-5.03-0.32-7.29c-2.57-4.57-7.94-5.63-9.89-4.69
			s-0.56,1.97-0.56,1.97l3.05,2.97c0.78,0.76,0.82,2,0.09,2.81l-1.47,1.63c-0.74,0.83-2.02,0.9-2.85,0.16l-3.17-2.79
			c0,0-1.28-0.8-1.85,0.02s-0.72,5.58,2.91,9.02s9.59,1.61,9.59,1.61l5.3,5.45"/>
		<path id="Path_244" class="st0" d="M559.02,211.56l17.32,17.78c1.35,1.38,3.56,1.4,4.93,0.06c0.02-0.02,0.04-0.04,0.06-0.06l0,0
			c1.33-1.35,1.33-3.53,0-4.88l-17.03-17.37"/>
	</g>
	<circle id="Ellipse_21" class="st0" cx="578.48" cy="226.39" r="1.3"/>
</g>
</svg>
