<?xml version="1.0" encoding="utf-8"?>
<!-- Generator: Adobe Illustrator 24.0.1, SVG Export Plug-In . SVG Version: 6.00 Build 0)  -->
<svg version="1.1" id="Layer_1" xmlns="http://www.w3.org/2000/svg" xmlns:xlink="http://www.w3.org/1999/xlink" x="0px" y="0px"
	 viewBox="0 0 56.87 56.87" style="enable-background:new 0 0 56.87 56.87;" xml:space="preserve">
<style type="text/css">
	.st0{fill:none;stroke:#010101;stroke-width:1.0564;stroke-linecap:round;stroke-miterlimit:10;}
	.st1{fill:#010101;}
</style>
<path class="st0" d="M11.03,23.03c0-9.61,7.82-17.43,17.43-17.43s17.43,7.82,17.43,17.43s-7.82,17.43-17.43,17.43"/>
<circle class="st0" cx="28.46" cy="23.03" r="13.55"/>
<path class="st0" d="M40.23,38.99c5.92,2.55,10.85,6.96,14.05,12.49"/>
<path class="st0" d="M2.59,51.57c5.14-8.96,14.8-14.99,25.87-14.99c2.39,0,4.71,0.28,6.93,0.81"/>
<path class="st1" d="M11.53,29.26L11.53,29.26c-0.79,0.14-1.56-0.39-1.7-1.18l-0.74-4.1c-0.14-0.79,0.39-1.56,1.18-1.7h0
	c0.79-0.14,1.56,0.39,1.7,1.18l0.74,4.1C12.85,28.35,12.32,29.11,11.53,29.26z"/>
<path class="st1" d="M45.25,29.26L45.25,29.26c0.79,0.14,1.56-0.39,1.7-1.18l0.74-4.1c0.14-0.79-0.39-1.56-1.18-1.7h0
	c-0.79-0.14-1.56,0.39-1.7,1.18l-0.74,4.1C43.92,28.35,44.45,29.11,45.25,29.26z"/>
<path class="st1" d="M26.68,40.46L26.68,40.46c0,0.81,0.66,1.47,1.47,1.47h0.61c0.81,0,1.47-0.66,1.47-1.47v0
	c0-0.81-0.66-1.47-1.47-1.47h-0.61C27.35,38.99,26.68,39.65,26.68,40.46z"/>
</svg>
