<?xml version="1.0" encoding="utf-8"?>
<!-- Generator: Adobe Illustrator 24.0.1, SVG Export Plug-In . SVG Version: 6.00 Build 0)  -->
<svg version="1.1" id="Layer_1" xmlns="http://www.w3.org/2000/svg" xmlns:xlink="http://www.w3.org/1999/xlink" x="0px" y="0px"
	 viewBox="0 0 25.9 25.9" style="enable-background:new 0 0 25.9 25.9;" xml:space="preserve">
<g id="Group_402" transform="translate(-3.836 -186.804)">
	<g id="Group_401">
		<g id="Group_400">
			<path id="Path_248" d="M13.26,197.51c1.1,2.32,2.91,4.24,5.17,5.47c0.16,0.09,0.33,0.17,0.49,0.27c0.06,0.05,0.16,0.05,0.21-0.02
				c0,0,0.01-0.01,0.01-0.01c0.37-0.37,0.75-0.73,1.11-1.12c0.33-0.37,0.84-0.52,1.32-0.38c0.29,0.07,0.57,0.19,0.81,0.36
				c0.87,0.66,1.66,1.44,2.32,2.31c0.37,0.44,0.51,1.04,0.37,1.6c-0.03,0.13-0.09,0.25-0.18,0.36c-0.66,0.86-1.61,1.45-2.68,1.65
				c-0.74,0.11-1.5,0.07-2.22-0.14c-1.71-0.42-3.32-1.2-4.71-2.28c-2.13-1.59-3.97-3.54-5.44-5.76c-0.66-0.96-1.09-2.05-1.28-3.19
				c-0.24-1.22-0.07-2.48,0.48-3.59c0.3-0.54,0.71-1,1.21-1.36c0.54-0.34,1.23-0.31,1.74,0.07c0.85,0.67,1.64,1.42,2.35,2.24
				c0.33,0.37,0.53,0.84,0.56,1.34c0.02,0.35-0.11,0.69-0.36,0.93C14.11,196.66,13.68,197.08,13.26,197.51z"/>
		</g>
	</g>
</g>
</svg>
