<?xml version="1.0" encoding="utf-8"?>
<!-- Generator: Adobe Illustrator 24.0.1, SVG Export Plug-In . SVG Version: 6.00 Build 0)  -->
<svg version="1.1" id="Layer_1" xmlns="http://www.w3.org/2000/svg" xmlns:xlink="http://www.w3.org/1999/xlink" x="0px" y="0px"
	 viewBox="0 0 322.72 144.73" style="enable-background:new 0 0 322.72 144.73;" xml:space="preserve">
<style type="text/css">
	.st0{fill:#FFFFFF;}
</style>
<g id="Group_224" transform="translate(-282.83)">
	<g id="Group_221">
		<path id="Path_156" class="st0" d="M386.73,11.25L386.73,11.25c9.58,0,17.35,7.77,17.35,17.35v103.77h-17.35V79.66h-68.04v52.72
			h-17.35V11.25h17.35v52.36h68.04L386.73,11.25z"/>
		<path id="Path_157" class="st0" d="M466.08,132.34v-10.23c-3.23,3.57-7.13,6.48-11.47,8.56c-4,1.97-8.4,3.01-12.86,3.05
			c-4.9,0.04-9.71-1.26-13.91-3.77c-4.13-2.4-7.47-5.96-9.62-10.23c-2.16-4.3-3.24-11.45-3.24-21.45V52.6l0,0
			c8.71,0,15.77,7.06,15.77,15.77v29.68c0,8.37,1.2,14.21,3.6,17.52c2.4,3.31,6.61,4.97,12.61,4.99c7.51,0,13.9-3.67,19.15-11V52.6
			l0,0c8.71,0,15.77,7.06,15.77,15.77v63.97H466.08L466.08,132.34z"/>
		<path id="Path_158" class="st0" d="M490.06,11.25L490.06,11.25c8.71,0,15.77,7.06,15.77,15.77v31.29
			c6.28-4.78,13.95-7.4,21.84-7.46c9.59-0.24,18.74,3.99,24.78,11.45c6.64,8.31,10.06,18.75,9.62,29.38
			c0,12.83-3.82,23.05-11.47,30.65c-7.65,7.6-17.9,11.4-30.74,11.39c-5.45-0.03-10.89-0.58-16.24-1.64
			c-4.68-0.79-9.24-2.19-13.55-4.16V11.25z M505.83,73.39v43.18c5.37,1.62,10.94,2.44,16.55,2.44c6.54,0.19,12.82-2.54,17.13-7.46
			c4.54-5.32,6.9-12.16,6.62-19.15c0.31-6.97-1.89-13.83-6.21-19.32c-3.93-4.87-9.9-7.63-16.16-7.46
			C517.04,65.96,510.66,68.72,505.83,73.39L505.83,73.39z"/>
	</g>
	<g id="Group_222">
		<rect id="Rectangle_67" x="459.18" y="22.59" class="st0" width="14.5" height="14.5"/>
		<rect id="Rectangle_68" x="573.54" y="22.59" class="st0" width="14.5" height="14.5"/>
	</g>
	<g id="Group_223">
		<rect id="Rectangle_69" x="559.07" y="37.08" class="st0" width="14.5" height="14.5"/>
	</g>
	<rect id="Rectangle_70" x="516.36" y="85.06" class="st0" width="14.5" height="14.5"/>
</g>
</svg>
