<?xml version="1.0" encoding="utf-8"?>
<!-- Generator: Adobe Illustrator 24.0.1, SVG Export Plug-In . SVG Version: 6.00 Build 0)  -->
<svg version="1.1" id="Layer_1" xmlns="http://www.w3.org/2000/svg" xmlns:xlink="http://www.w3.org/1999/xlink" x="0px" y="0px"
	 viewBox="0 0 25.9 25.9" style="enable-background:new 0 0 25.9 25.9;" xml:space="preserve">
<g id="Group_405" transform="translate(-5.148 -76.504)">
	<g id="Group_404">
		<g id="Group_403">
			<path id="Path_249" d="M18.09,99.49c-0.14-0.16-0.27-0.31-0.39-0.47c-1.1-1.33-2.13-2.7-3.09-4.13
				c-0.92-1.35-1.74-2.78-2.43-4.26c-0.44-0.93-0.77-1.91-0.98-2.92c-0.23-1.11-0.16-2.26,0.19-3.34c0.62-2.09,2.2-3.76,4.25-4.5
				c1.47-0.58,3.1-0.62,4.59-0.11c2.14,0.66,3.83,2.31,4.53,4.43c0.3,0.86,0.43,1.77,0.36,2.68c-0.06,0.68-0.19,1.36-0.41,2.01
				c-0.4,1.23-0.93,2.41-1.58,3.53c-1.05,1.86-2.25,3.64-3.57,5.32c-0.44,0.57-0.91,1.12-1.36,1.68
				C18.15,99.43,18.11,99.45,18.09,99.49z M20.6,86.45c0-1.39-1.12-2.51-2.51-2.51c-1.39,0-2.51,1.12-2.51,2.51
				c0,1.38,1.12,2.5,2.5,2.51c1.38,0.01,2.51-1.1,2.52-2.48C20.6,86.47,20.6,86.46,20.6,86.45z"/>
		</g>
	</g>
</g>
</svg>
