<?xml version="1.0" encoding="utf-8"?>
<!-- Generator: Adobe Illustrator 24.0.1, SVG Export Plug-In . SVG Version: 6.00 Build 0)  -->
<svg version="1.1" id="Layer_1" xmlns="http://www.w3.org/2000/svg" xmlns:xlink="http://www.w3.org/1999/xlink" x="0px" y="0px"
	 viewBox="0 0 25.9 25.9" style="enable-background:new 0 0 25.9 25.9;" xml:space="preserve">
<g id="Group_406" transform="translate(0 -141.86)">
	<path id="Path_250" d="M24.42,147.36c-0.43-0.38-0.98-0.59-1.55-0.59H2.94c-0.33,0-0.66,0.06-0.97,0.2
		c-0.22,0.09-0.42,0.23-0.59,0.4c0.05,0.04,0.08,0.07,0.12,0.1c0.75,0.68,1.49,1.37,2.24,2.05l4.29,3.93
		c1.21,1.11,2.42,2.22,3.64,3.33c0.73,0.67,1.85,0.67,2.58,0c1.44-1.33,2.87-2.66,4.31-3.98l5.24-4.85
		C24,147.75,24.2,147.56,24.42,147.36z M16.43,155.82c-0.53,0.49-1.06,0.97-1.57,1.46c-0.96,0.97-2.51,1.06-3.58,0.21
		c-0.44-0.36-0.85-0.76-1.27-1.15c-0.17-0.16-0.34-0.31-0.52-0.47c-2.71,2.13-5.42,4.26-8.12,6.39c0.04,0.04,0.08,0.07,0.12,0.1
		c0.42,0.33,0.95,0.5,1.48,0.49h19.84c0.34,0.01,0.68-0.06,0.99-0.2c0.32-0.14,0.61-0.35,0.83-0.63
		C21.9,159.95,19.16,157.89,16.43,155.82L16.43,155.82z"/>
	<path id="Path_251" d="M0.79,148.65c0.04-0.17,0.07-0.34,0.12-0.51c0.02-0.06,0.05-0.12,0.08-0.18c2.65,2.45,5.28,4.89,7.93,7.35
		c-2.64,2.11-5.28,4.22-7.92,6.32c-0.11-0.21-0.18-0.44-0.21-0.68C0.79,156.86,0.79,152.76,0.79,148.65z"/>
	<path id="Path_252" d="M25.12,161.07c-0.03,0.08-0.06,0.17-0.1,0.27c-2.67-2.02-5.34-4.04-8-6.07l7.88-7.31
		c0.08,0.21,0.15,0.39,0.22,0.58V161.07z"/>
	<path id="Path_253" d="M24.42,147.36c-0.22,0.2-0.42,0.39-0.63,0.58l-5.24,4.85c-1.44,1.33-2.87,2.66-4.31,3.98
		c-0.73,0.67-1.85,0.67-2.58,0c-1.21-1.11-2.42-2.22-3.64-3.33l-4.29-3.93c-0.75-0.68-1.49-1.37-2.24-2.05
		c-0.03-0.03-0.07-0.06-0.12-0.1c0.17-0.17,0.37-0.3,0.59-0.4c0.31-0.14,0.64-0.2,0.97-0.2h19.93
		C23.43,146.77,23.98,146.99,24.42,147.36z"/>
	<path id="Path_254" d="M16.43,155.82l8.21,6.2c-0.22,0.27-0.51,0.49-0.83,0.63c-0.31,0.14-0.65,0.2-0.99,0.2H2.98
		c-0.53,0.01-1.06-0.16-1.48-0.49c-0.04-0.03-0.07-0.06-0.12-0.1c2.71-2.13,5.42-4.26,8.12-6.39c0.17,0.16,0.35,0.31,0.52,0.47
		c0.42,0.38,0.83,0.79,1.27,1.15c1.07,0.86,2.62,0.77,3.58-0.21C15.38,156.78,15.91,156.3,16.43,155.82z"/>
</g>
</svg>
