<?xml version="1.0" encoding="utf-8"?>
<!-- Generator: Adobe Illustrator 24.0.1, SVG Export Plug-In . SVG Version: 6.00 Build 0)  -->
<svg version="1.1" id="Layer_1" xmlns="http://www.w3.org/2000/svg" xmlns:xlink="http://www.w3.org/1999/xlink" x="0px" y="0px"
	 viewBox="0 0 53.28 53.26" style="enable-background:new 0 0 53.28 53.26;" xml:space="preserve">
<g id="Group_435" transform="translate(-0.007 0.023)">
	<path id="Path_267" d="M28.14,45.57h19.62V47H28.13c-0.01,0.19-0.02,0.34-0.02,0.48c-0.01,0.75-0.25,1-1.02,1h-8.2H6.54
		c-0.93,0-1.24-0.49-0.83-1.31c0.88-1.76,1.77-3.52,2.64-5.29c0.16-0.36,0.47-0.64,0.84-0.77c3.99-1.54,7.97-3.1,11.95-4.63
		c0.27-0.05,0.45-0.31,0.41-0.58c-0.02-0.97-0.02-1.94,0-2.92c0.01-0.31-0.08-0.46-0.38-0.54c-1.06-0.32-2.04-0.89-2.85-1.64
		c-1.18-1-1.86-2.46-1.87-4c-0.05-1.32-0.13-2.63-0.2-3.95c-0.15-0.05-0.31-0.09-0.46-0.13c-1.33-0.17-2.4-1.17-2.65-2.48
		c-0.2-0.76-0.34-1.54-0.4-2.33c-0.13-1.07,0.52-2.08,1.55-2.42c0.47-0.19,0.98-0.3,1.51-0.45c0.02-0.35,0.02-0.69-0.01-1.04
		c-0.37-2.73,0.82-4.85,2.71-6.63c1.75-1.66,4.07-2.59,6.48-2.6c2.9-0.06,5.8-0.02,8.7-0.02c0.07,0,0.15,0.01,0.25,0.02V6.2h-5.78
		v1.44h8.69v1.47h-8.69v1.45h10.13v1.47H28.14v1.45h10.15v1.47H28.15v1.46h13.06v1.45H28.14v1.45H41.2v1.47H28.15v1.46h10.14v1.45
		H28.14v1.46h9.41v1.45h-9.4v1.46h9.41v1.45h-9.42v1.46h5.04v1.46h-5.05v1.45h4.32v1.45h-4.32v1.46h6.5v1.46h-6.5v1.46h13.06v1.46
		H28.13v1.45H46.3v1.46H28.14C28.14,44.58,28.14,45.04,28.14,45.57z M26.63,6.23c-1.73-0.19-3.48,0.09-5.07,0.8
		c-2.2,0.93-3.8,2.87-4.3,5.2c-0.1,0.98-0.09,1.97,0.04,2.94c0.19,3.76,0.47,7.51,0.57,11.27c0.03,2,1.33,3.77,3.23,4.4
		c1.53,0.66,3.13,1.14,4.7,1.71c0.27,0.1,0.53,0.19,0.83,0.29C26.63,23.94,26.63,15.1,26.63,6.23z M26.65,47v-3.53
		c0-2.88,0-5.76-0.01-8.65c0-0.15-0.07-0.41-0.17-0.45c-1.13-0.43-2.27-0.83-3.47-1.27c0,1.18,0,2.3,0,3.42
		c0,0.67-0.11,0.83-0.75,1.08l-10.58,4.12c-0.68,0.16-1.32,0.43-1.91,0.8c-0.44,0.55-0.79,1.18-1.02,1.85
		C8.31,45.23,7.89,46.09,7.44,47L26.65,47z M15.91,16.5c-0.47,0.16-0.87,0.26-1.23,0.43c-0.33,0.11-0.54,0.44-0.5,0.79
		c0.13,0.86,0.31,1.72,0.53,2.56c0.21,0.62,0.81,1.02,1.46,0.98C16.09,19.69,16.01,18.16,15.91,16.5L15.91,16.5z"/>
</g>
</svg>
