<?xml version="1.0" encoding="utf-8"?>
<!-- Generator: Adobe Illustrator 24.0.1, SVG Export Plug-In . SVG Version: 6.00 Build 0)  -->
<svg version="1.1" id="Layer_1" xmlns="http://www.w3.org/2000/svg" xmlns:xlink="http://www.w3.org/1999/xlink" x="0px" y="0px"
	 viewBox="0 0 53.28 53.26" style="enable-background:new 0 0 53.28 53.26;" xml:space="preserve">
<g id="Group_437" transform="translate(-0.004 0)">
	<path id="Path_274" d="M26.63,9.27c4.3,0,8.6,0.01,12.9-0.01C40,9.26,40.44,9.45,40.75,9.8c3.13,3.15,6.26,6.29,9.41,9.42
		c0.62,0.61,0.61,0.98-0.01,1.6c-2.84,2.83-5.68,5.66-8.51,8.5c-4.77,4.77-9.53,9.54-14.3,14.32c-0.28,0.39-0.82,0.48-1.21,0.2
		c-0.08-0.06-0.16-0.13-0.21-0.22C18.3,35.99,10.67,28.36,3.04,20.73c-0.39-0.27-0.5-0.81-0.22-1.2c0.06-0.08,0.13-0.16,0.21-0.22
		c3.18-3.17,6.36-6.35,9.53-9.52c0.33-0.35,0.79-0.54,1.27-0.52C18.1,9.28,22.37,9.27,26.63,9.27L26.63,9.27z M34.49,19.19
		c-0.03-0.06-0.06-0.11-0.1-0.17c-2.63-2.63-5.26-5.26-7.89-7.88c-0.17-0.14-0.37-0.21-0.59-0.21c-3.92-0.01-7.85-0.01-11.77,0
		c-0.23,0.01-0.45,0.1-0.62,0.26c-2.57,2.55-5.12,5.1-7.67,7.66c-0.09,0.11-0.18,0.22-0.26,0.33h3.13c1.53,0,3.06-0.01,4.6,0
		c0.74,0,1.16,0.61,0.85,1.2c-0.18,0.33-0.54,0.51-0.91,0.46c-2.36-0.01-4.72,0-7.07,0H5.75L24,39.1c0.03,0.08,0.01,0.02-0.02-0.04
		c-2.65-6.17-5.3-12.35-7.95-18.52c-0.23-0.4-0.16-0.9,0.19-1.21c2.09-2.07,4.18-4.15,6.25-6.23c0.11-0.13,0.24-0.25,0.38-0.35
		c0.31-0.25,0.76-0.23,1.04,0.06c0.32,0.27,0.37,0.74,0.12,1.07c-0.09,0.12-0.2,0.24-0.31,0.34c-1.5,1.5-2.99,3-4.49,4.49
		c-0.13,0.13-0.25,0.27-0.45,0.48h6.53c1.51,0,3.03,0,4.54,0c0.46-0.06,0.88,0.27,0.94,0.73c0,0.03,0.01,0.05,0.01,0.08
		c0.01,0.5-0.36,0.83-0.96,0.85c-0.05,0-0.1,0-0.16,0H17.99c2.89,6.74,5.74,13.4,8.66,20.2l8.66-20.2c-0.72,0-1.36,0.01-1.99,0
		c-0.45,0.03-0.85-0.31-0.88-0.76s0.31-0.85,0.76-0.88c0.03,0,0.07,0,0.1,0C33.66,19.18,34.04,19.19,34.49,19.19L34.49,19.19z
		 M28.69,10.93c0.11,0.14,0.15,0.19,0.19,0.24c2.7,2.7,5.41,5.4,8.11,8.09c0.37,0.28,0.49,0.77,0.29,1.19
		c-2.63,6.12-5.26,12.25-7.89,18.38c-0.06,0.15-0.12,0.3-0.18,0.46l-0.05-0.08l18.36-18.36h-0.83c-2.24,0-4.47,0-6.71,0
		c-0.65,0-1.08-0.45-0.94-0.99c0.1-0.44,0.52-0.73,0.97-0.66c2.38,0.01,4.75,0,7.12,0h0.59c-0.11-0.14-0.16-0.2-0.22-0.26
		c-2.59-2.59-5.19-5.18-7.78-7.77c-0.16-0.14-0.37-0.22-0.58-0.23c-1-0.02-2-0.01-2.99-0.01L28.69,10.93z"/>
	<path id="Path_275" d="M17.67,13.34c-0.12,0.25-0.26,0.5-0.43,0.72c-1.04,1.07-2.1,2.12-3.17,3.17c-0.29,0.36-0.81,0.41-1.17,0.12
		c-0.36-0.29-0.41-0.81-0.12-1.17c0.04-0.05,0.08-0.09,0.13-0.13c1.05-1.06,2.11-2.12,3.17-3.17c0.22-0.31,0.64-0.4,0.97-0.21
		C17.29,12.86,17.49,13.09,17.67,13.34z"/>
	<path id="Path_276" d="M27.47,31.58c0,0.53,0.01,1.07,0,1.6c0.03,0.45-0.3,0.84-0.75,0.88c-0.02,0-0.04,0-0.05,0
		c-0.46,0.01-0.83-0.36-0.84-0.81c0-0.03,0-0.06,0-0.09c-0.01-1.05-0.01-2.09,0-3.14c-0.05-0.45,0.29-0.86,0.74-0.9
		c0.03,0,0.06,0,0.1,0c0.46,0.01,0.83,0.39,0.82,0.85c0,0.03,0,0.05-0.01,0.08C27.47,30.55,27.47,31.06,27.47,31.58z"/>
	<path id="Path_277" d="M36.5,12.47c0.25,0.12,0.49,0.27,0.72,0.44c1.05,1.03,2.1,2.08,3.14,3.13c0.37,0.28,0.44,0.8,0.16,1.17
		c-0.28,0.37-0.8,0.44-1.17,0.16c-0.06-0.05-0.12-0.1-0.16-0.16c-1.06-1.05-2.12-2.11-3.17-3.17c-0.31-0.23-0.39-0.65-0.2-0.98
		C36.02,12.84,36.25,12.64,36.5,12.47z"/>
</g>
</svg>
