<?xml version="1.0" encoding="utf-8"?>
<!-- Generator: Adobe Illustrator 24.0.1, SVG Export Plug-In . SVG Version: 6.00 Build 0)  -->
<svg version="1.1" id="Layer_1" xmlns="http://www.w3.org/2000/svg" xmlns:xlink="http://www.w3.org/1999/xlink" x="0px" y="0px"
	 viewBox="0 0 53.28 53.26" style="enable-background:new 0 0 53.28 53.26;" xml:space="preserve">
<g>
	<path id="Path_268" d="M23.98,14.72h5.33V47.7h-5.33V14.72z M25.21,15.94v30.54h2.87V15.94H25.21z"/>
	<path id="Path_269" d="M45.84,47.71h-5.33V17.89h5.33V47.71z M41.75,19.11v27.36h2.87V19.11L41.75,19.11z"/>
	<path id="Path_270" d="M26.74,5.55l8.25,11.17L42,10.1L41.97,10l-1.6,0.28c-0.08-0.39-0.15-0.75-0.24-1.18l4.38-0.85
		c-0.2,1.51-0.4,2.97-0.6,4.49l-1.2-0.14c0.06-0.55,0.12-1.06,0.19-1.69l-8.08,7.64L26.54,7.33L10.51,21.16l-0.8-0.92L26.74,5.55z"
		/>
	<path id="Path_271" d="M15.71,25.5h5.34V47.7h-5.34V25.5z M19.81,46.49V26.74h-2.87v19.75L19.81,46.49z"/>
	<path id="Path_272" d="M7.44,29.93h5.33V47.7H7.44V29.93z M11.54,46.48V31.16H8.66v15.32H11.54z"/>
	<path id="Path_273" d="M37.59,32.91v14.8h-5.34v-14.8H37.59z M36.39,46.49v-0.58c0-2.64,0-5.28,0-7.92c0-1.18-0.01-2.36,0-3.54
		c0-0.27-0.08-0.37-0.36-0.36c-0.76,0.02-1.52,0-2.27,0.01c-0.09,0.01-0.18,0.02-0.27,0.04v12.35L36.39,46.49z"/>
</g>
</svg>
