<?xml version="1.0" encoding="utf-8"?>
<!-- Generator: Adobe Illustrator 24.0.1, SVG Export Plug-In . SVG Version: 6.00 Build 0)  -->
<svg version="1.1" id="Layer_1" xmlns="http://www.w3.org/2000/svg" xmlns:xlink="http://www.w3.org/1999/xlink" x="0px" y="0px"
	 viewBox="0 0 53.28 53.26" style="enable-background:new 0 0 53.28 53.26;" xml:space="preserve">
<g id="Group_438">
	<path id="Path_278" d="M2.4,23.21c0.26-0.5,0.58-0.96,0.95-1.37c1.12-0.97,3.74-0.78,4.28,1.27c0.04,0.17,0.07,0.34,0.07,0.51
		c0,3.44,0,6.88,0,10.32c0,0.06-0.01,0.12-0.02,0.22h-1.5v-1.45c0-2.87,0-5.74,0.01-8.61c0-1.15-0.26-1.3-1.33-1.26
		c-0.73,0.02-0.94,0.23-0.95,0.98c-0.01,1.51,0,3.03,0,4.54c0,3.31,0,6.62,0,9.94c-0.05,1.41,0.47,2.78,1.44,3.81
		c1.03,1.06,2.1,2.1,3.14,3.15c0.68,0.63,1.33,1.3,1.93,2.01c0.81,1.01,1.19,2.31,1.05,3.6H9.97c0.11-1.16-0.32-2.31-1.16-3.12
		c-1.49-1.47-2.98-2.95-4.44-4.45c-0.44-0.43-0.81-0.92-1.09-1.47c-0.34-0.79-0.63-1.6-0.88-2.42C2.4,34,2.4,28.6,2.4,23.21z"/>
	<path id="Path_279" d="M41.79,50.85c-0.12-1.73,0.58-3.42,1.9-4.55c1.38-1.32,2.7-2.7,4.06-4.04c1.04-0.98,1.62-2.35,1.61-3.78
		c0.02-4.87,0.02-9.75-0.01-14.62c0-0.31-0.14-0.78-0.35-0.88c-0.52-0.28-1.15-0.25-1.65,0.07c-0.18,0.13-0.24,0.53-0.24,0.81
		c-0.02,3.23-0.01,6.47-0.01,9.7v0.6h-1.5c-0.01-0.15-0.02-0.3-0.02-0.46c0-3.31,0-6.63,0-9.94c-0.02-1.33,1.04-2.43,2.38-2.46
		c0.02,0,0.05,0,0.07,0c0.78-0.09,1.56,0.17,2.13,0.7c0.46,0.44,0.72,1.05,0.73,1.69c0,5,0.01,10-0.01,15c0,1.7-0.68,3.32-1.89,4.51
		c-1.41,1.45-2.83,2.88-4.29,4.28c-0.97,0.84-1.49,2.09-1.39,3.37L41.79,50.85z"/>
	<path id="Path_280" d="M34.22,50.85c0-1.72-0.01-3.44,0-5.16c-0.01-1.74,0.68-3.42,1.92-4.64c2.18-2.21,4.38-4.41,6.6-6.59
		c0.18-0.16,0.41-0.25,0.65-0.26c1.64,0.08,2.93,1.42,2.95,3.06c-0.01,0.15-0.05,0.3-0.13,0.43c-1.75,2.52-3.51,5.03-5.29,7.59
		l-1.31-0.9c0.57-0.83,1.14-1.64,1.71-2.46c1.07-1.52,2.14-3.05,3.21-4.57c0.3-0.47,0.16-1.09-0.32-1.39
		c-0.13-0.08-0.27-0.13-0.43-0.15c-0.15,0.01-0.29,0.07-0.4,0.18c-2.08,2.07-4.16,4.13-6.23,6.22c-0.93,0.97-1.44,2.28-1.42,3.62
		c-0.03,1.67-0.01,3.34-0.01,5.02L34.22,50.85z"/>
	<path id="Path_281" d="M17.55,50.85c0-1.69,0.02-3.38-0.01-5.06c0-1.41-0.57-2.76-1.58-3.75c-1.98-1.97-3.96-3.94-5.92-5.92
		c-0.39-0.39-0.6-0.42-1-0.1c-0.51,0.42-0.62,0.81-0.32,1.24c1.35,1.94,2.7,3.88,4.06,5.81c0.29,0.42,0.59,0.85,0.9,1.29l-1.3,0.92
		c-0.94-1.33-1.87-2.65-2.79-3.97C8.77,40.16,7.98,39,7.15,37.86c-0.23-0.36-0.3-0.8-0.19-1.21c0.35-1.38,1.56-2.38,2.98-2.45
		c0.21,0.01,0.41,0.09,0.57,0.23c2.24,2.22,4.49,4.44,6.69,6.69c1.18,1.19,1.85,2.8,1.85,4.48c0.03,1.75,0.01,3.5,0.01,5.25H17.55z"
		/>
	<path id="Path_282" d="M28.91,50.85V30.44h1.52v20.42H28.91z"/>
	<path id="Path_283" d="M25.88,50.85v-7.57h-3.01v-6.79h1.49v5.26h3.03v9.1L25.88,50.85z"/>
	<path id="Path_284" d="M22.85,50.85v-6.03h1.51v6.03H22.85z"/>
	<path id="Path_285" d="M22.83,24.35h1.5v10.59c-0.56,0-1.12,0.01-1.68-0.01c-0.13-0.03-0.25-0.11-0.34-0.21
		c-2.27-2.26-4.53-4.53-6.79-6.8c-0.15-0.17-0.23-0.39-0.24-0.62c-0.02-2.37-0.02-4.73,0-7.1c0.05-0.31-0.14-0.6-0.43-0.7
		c-1.29-0.55-2.03-1.93-1.78-3.31c0.31-1.64,1.89-2.71,3.52-2.4c1.24,0.23,2.2,1.21,2.41,2.46c0.22,1.35-0.5,2.69-1.75,3.24
		c-0.33,0.11-0.53,0.44-0.47,0.77c0.02,2.13,0,4.26,0.02,6.39c0.02,0.25,0.12,0.5,0.29,0.69c0.61,0.65,1.25,1.27,1.96,1.99v-7.98
		h1.53v0.55c0,2.82,0.01,5.65-0.01,8.47c-0.02,0.31,0.11,0.61,0.35,0.82c0.63,0.6,1.22,1.22,1.92,1.92
		C22.83,30.13,22.83,27.26,22.83,24.35z M17.54,16.78c0.03-0.81-0.61-1.49-1.42-1.52c-0.03,0-0.06,0-0.09,0
		c-0.8-0.04-1.47,0.58-1.51,1.38c0,0.05,0,0.09,0,0.14c-0.02,0.81,0.62,1.48,1.43,1.5c0.02,0,0.03,0,0.05,0
		c0.82,0.03,1.51-0.6,1.54-1.42C17.54,16.83,17.54,16.81,17.54,16.78z"/>
	<path id="Path_286" d="M30.42,27.03c0.18-0.17,0.29-0.26,0.39-0.36c2.8-2.8,5.6-5.6,8.4-8.39c0.21-0.19,0.32-0.46,0.31-0.74
		c-0.02-0.74-0.01-1.48-0.01-2.25h1.52c0,1.06,0.01,2.11-0.01,3.16c-0.03,0.15-0.11,0.29-0.23,0.38c-3.27,3.27-6.54,6.54-9.81,9.8
		c-0.17,0.15-0.39,0.23-0.61,0.25c-0.47,0.04-0.94,0.01-1.44,0.01c-0.01-0.17-0.02-0.31-0.02-0.44c0-1.81,0.01-3.63-0.01-5.44
		c-0.01-0.33,0.12-0.64,0.37-0.86c1.56-1.54,3.11-3.09,4.65-4.65c0.17-0.19,0.27-0.43,0.28-0.69c0.03-1.13,0-2.27,0.02-3.41
		c0.05-0.31-0.13-0.61-0.43-0.7c-1.28-0.55-2.02-1.9-1.79-3.27c0.28-1.64,1.84-2.74,3.48-2.46c1.24,0.21,2.22,1.18,2.45,2.41
		c0.25,1.37-0.47,2.73-1.74,3.29c-0.33,0.1-0.53,0.43-0.48,0.77c0.03,1.34,0.02,2.68,0,4.02c-0.01,0.24-0.11,0.47-0.27,0.65
		c-1.57,1.6-3.16,3.17-4.73,4.77c-0.16,0.18-0.26,0.41-0.27,0.65C30.41,24.66,30.42,25.79,30.42,27.03z M36.47,9.96
		c0.01-0.83-0.67-1.51-1.5-1.52c-0.83-0.01-1.51,0.67-1.52,1.5c-0.01,0.83,0.66,1.51,1.49,1.52c0.8,0.04,1.48-0.57,1.52-1.37
		C36.47,10.05,36.47,10,36.47,9.96z"/>
	<path id="Path_287" d="M25.91,8.46h1.46v31.77h-1.46V8.46z"/>
	<path id="Path_288" d="M25.9,3.86V2.41h1.47v1.45H25.9z"/>
	<path id="Path_289" d="M25.9,5.43h1.46V6.9H25.9V5.43z"/>
	<path id="Path_290" d="M41,10.7h-1.45V9.23H41L41,10.7z"/>
	<path id="Path_291" d="M15.25,10.74v1.46H13.8v-1.46H15.25z"/>
	<path id="Path_292" d="M18.28,10.73v1.46h-1.47v-1.46H18.28z"/>
	<path id="Path_293" d="M41.01,13.72h-1.46v-1.47h1.46V13.72z"/>
	<path id="Path_294" d="M24.34,22.8h-1.46v-1.46h1.46V22.8z"/>
	<path id="Path_295" d="M33.42,31.91h-1.44v-1.47h1.44L33.42,31.91z"/>
	<path id="Path_296" d="M31.96,33.45h1.46v1.47h-1.46V33.45z"/>
	<path id="Path_297" d="M21.31,37.96c-0.1,0.01-0.17,0.02-0.25,0.02c-0.39,0-0.78,0-1.21,0v-1.49h1.46V37.96z"/>
</g>
</svg>
