<?xml version="1.0" encoding="utf-8"?>
<!-- Generator: Adobe Illustrator 24.0.1, SVG Export Plug-In . SVG Version: 6.00 Build 0)  -->
<svg version="1.1" id="Layer_1" xmlns="http://www.w3.org/2000/svg" xmlns:xlink="http://www.w3.org/1999/xlink" x="0px" y="0px"
	 viewBox="0 0 50 50" style="enable-background:new 0 0 50 50;" xml:space="preserve">
<style type="text/css">
	.st0{fill:none;stroke:#000000;stroke-width:1.126;stroke-linecap:round;stroke-miterlimit:10;}
</style>
<g>
	<path class="st0" d="M33.3,44.6c0-3.59-2.42-3.52-5.26-3.19s-3.78,0.01-4.02-1.34c-0.14-0.76,0.59-3.09-0.54-4.04
		c-1.13-0.95-0.13-1.56,0.63-2.36s0.59-1.12-0.63-1.62c-1.21-0.5-0.8-2.17-1.47-2.84c-0.67-0.67-2.59-1.25-1.84-2.68
		c0.75-1.42,3.6-4.6,2.76-7.86c-0.21-0.82-0.23-1.7-0.15-2.56c0.37-3.7,2.74-6.93,6.11-8.49c2.58-1.19,6.28-2.01,11.25-1.09"/>
	<line class="st0" x1="13.7" y1="28.79" x2="13.7" y2="39.61"/>
	<line class="st0" x1="15.91" y1="30.29" x2="15.91" y2="38.11"/>
	<line class="st0" x1="11.49" y1="30.29" x2="11.49" y2="38.11"/>
	<line class="st0" x1="18.11" y1="31.16" x2="18.11" y2="37.24"/>
	<line class="st0" x1="9.28" y1="31.16" x2="9.28" y2="37.24"/>
</g>
</svg>
