<?xml version="1.0" encoding="utf-8"?>
<!-- Generator: Adobe Illustrator 24.0.1, SVG Export Plug-In . SVG Version: 6.00 Build 0)  -->
<svg version="1.1" id="Layer_1" xmlns="http://www.w3.org/2000/svg" xmlns:xlink="http://www.w3.org/1999/xlink" x="0px" y="0px"
	 viewBox="0 0 50 50" style="enable-background:new 0 0 50 50;" xml:space="preserve">
<style type="text/css">
	.st0{fill:none;stroke:#000000;stroke-width:1.126;stroke-linecap:round;stroke-miterlimit:10;}
</style>
<g>
	<g>
		<path class="st0" d="M9.53,33.24c-1.19-2.76-1.84-5.7-1.84-8.76c0-2.77,0.53-5.44,1.52-7.97"/>
		<path class="st0" d="M3.94,12.15c-1.89,3.84-2.92,7.99-2.92,12.33c0,4.78,1.25,9.33,3.52,13.49"/>
		<path class="st0" d="M9.21,16.51c-0.98,2.53-1.52,5.2-1.52,7.97c0,3.06,0.65,6,1.84,8.76"/>
		<path class="st0" d="M15.32,24.23"/>
	</g>
	<g>
		<path class="st0" d="M40.47,16.88c1.19,2.76,1.84,5.7,1.84,8.76c0,2.77-0.53,5.44-1.52,7.97"/>
		<path class="st0" d="M46.06,37.97c1.89-3.84,2.92-7.99,2.92-12.33c0-4.78-1.25-9.33-3.52-13.49"/>
		<path class="st0" d="M40.79,33.61c0.98-2.53,1.52-5.2,1.52-7.97c0-3.06-0.65-6-1.84-8.76"/>
		<path class="st0" d="M34.68,25.88"/>
	</g>
	<g>
		<path class="st0" d="M33.56,43.58H16.23c-1.26,0-2.28-1.02-2.28-2.28V8.69c0-1.26,1.02-2.28,2.28-2.28h17.33
			c1.26,0,2.28,1.02,2.28,2.28v32.61C35.84,42.56,34.82,43.58,33.56,43.58z"/>
		<line class="st0" x1="16.31" y1="9.21" x2="33.49" y2="9.21"/>
		<line class="st0" x1="16.31" y1="40.79" x2="33.49" y2="40.79"/>
	</g>
</g>
</svg>
