<?xml version="1.0" encoding="utf-8"?>
<!-- Generator: Adobe Illustrator 24.0.1, SVG Export Plug-In . SVG Version: 6.00 Build 0)  -->
<svg version="1.1" id="Layer_1" xmlns="http://www.w3.org/2000/svg" xmlns:xlink="http://www.w3.org/1999/xlink" x="0px" y="0px"
	 viewBox="0 0 50 50" style="enable-background:new 0 0 50 50;" xml:space="preserve">
<style type="text/css">
	.st0{fill:none;stroke:#000000;stroke-width:1.126;stroke-linecap:round;stroke-miterlimit:10;}
	.st1{fill:none;stroke:#000000;stroke-width:1.2885;stroke-linecap:round;stroke-miterlimit:10;}
</style>
<g>
	<path class="st0" d="M13.26,26.96c3.96-1.7,8.18-2.64,12.57-2.64c3.98,0,7.81,0.77,11.44,2.17"/>
	<path class="st0" d="M43.53,18.93c-5.51-2.71-11.47-4.19-17.7-4.19c-6.86,0-13.4,1.8-19.36,5.05"/>
	<path class="st0" d="M37.27,26.49c-3.63-1.41-7.46-2.17-11.44-2.17c-4.39,0-8.61,0.93-12.57,2.64"/>
	<path class="st0" d="M21.53,35.27c1.4-0.28,2.84-0.42,4.3-0.42c1.31,0,2.6,0.13,3.87,0.35"/>
	<path class="st1" d="M26.19,35.27"/>
</g>
</svg>
