<?xml version="1.0" encoding="utf-8"?>
<!-- Generator: Adobe Illustrator 24.0.1, SVG Export Plug-In . SVG Version: 6.00 Build 0)  -->
<svg version="1.1" id="Layer_1" xmlns="http://www.w3.org/2000/svg" xmlns:xlink="http://www.w3.org/1999/xlink" x="0px" y="0px"
	 viewBox="0 0 50 50" style="enable-background:new 0 0 50 50;" xml:space="preserve">
<style type="text/css">
	.st0{fill:none;stroke:#000000;stroke-width:1.2885;stroke-linecap:round;stroke-miterlimit:10;}
</style>
<g>
	<path class="st0" d="M30.15,34.88h9.18l0,0c3.79,0,6.87-3.07,6.87-6.87l0,0c0-3.79-3.07-6.87-6.87-6.87l0,0
		c-0.24,0-0.48,0.01-0.71,0.04c0-0.01,0-0.02,0-0.04c0-3.79-3.07-6.87-6.87-6.87c-1.69,0-3.24,0.62-4.44,1.63
		c-1.94-1.84-4.57-2.98-7.46-2.98l0,0c-5.13,0-9.42,3.56-10.55,8.35c-3.14,0.63-5.5,3.41-5.5,6.73l0,0c0,3.79,3.07,6.87,6.87,6.87h0
		h9.3"/>
	<line class="st0" x1="25" y1="37.07" x2="25" y2="27.28"/>
	<path class="st0" d="M20.57,32.18l3.39-4.59c0.52-0.7,1.56-0.71,2.09-0.02l3.51,4.61"/>
</g>
</svg>
