<?xml version="1.0" encoding="utf-8"?>
<!-- Generator: Adobe Illustrator 24.0.1, SVG Export Plug-In . SVG Version: 6.00 Build 0)  -->
<svg version="1.1" id="Layer_1" xmlns="http://www.w3.org/2000/svg" xmlns:xlink="http://www.w3.org/1999/xlink" x="0px" y="0px"
	 viewBox="0 0 99.15 84" style="enable-background:new 0 0 99.15 84;" xml:space="preserve">
<style type="text/css">
	.st0{font-family:'ProximaNova-Semibold';}
	.st1{font-size:12.9654px;}
	.st2{font-family:'ProximaNova-Light';}
	.st3{font-size:9.4542px;}
</style>
<g>
	<g>
		<path d="M42.43,32.64c-0.8,0-1.45,0.65-1.45,1.45c0,0.8,0.65,1.45,1.45,1.45c0.8,0,1.45-0.65,1.45-1.45
			C43.89,33.29,43.24,32.64,42.43,32.64z"/>
		<path d="M29.23,32.64c-0.8,0-1.45,0.65-1.45,1.45c0,0.8,0.65,1.45,1.45,1.45c0.8,0,1.45-0.65,1.45-1.45
			C30.68,33.29,30.03,32.64,29.23,32.64z"/>
		<path d="M16.02,32.64c-0.8,0-1.45,0.65-1.45,1.45c0,0.8,0.65,1.45,1.45,1.45c0.8,0,1.45-0.65,1.45-1.45
			C17.47,33.29,16.82,32.64,16.02,32.64z"/>
		<path d="M52.49,19.76H5.96c-1.19,0-2.15,0.96-2.15,2.15v24.35c0,1.19,0.96,2.15,2.15,2.15h46.53c1.19,0,2.15-0.96,2.15-2.15V21.91
			C54.64,20.72,53.68,19.76,52.49,19.76z M16.02,36.66c-1.42,0-2.57-1.15-2.57-2.57c0-1.42,1.15-2.57,2.57-2.57
			c1.42,0,2.57,1.15,2.57,2.57C18.58,35.51,17.43,36.66,16.02,36.66z M29.23,36.66c-1.42,0-2.57-1.15-2.57-2.57
			c0-1.42,1.15-2.57,2.57-2.57c1.42,0,2.57,1.15,2.57,2.57C31.79,35.51,30.64,36.66,29.23,36.66z M42.43,36.66
			c-1.42,0-2.57-1.15-2.57-2.57c0-1.42,1.15-2.57,2.57-2.57c1.42,0,2.57,1.15,2.57,2.57C45,35.51,43.85,36.66,42.43,36.66z"/>
	</g>
	<g>
		<g>
			<polygon points="75.87,38.37 91.4,23.56 75.87,8.76 60.34,23.56 			"/>
			<path d="M80.44,4.4l-4.08,3.89l15.5,14.83l3.35-3.2V18c0-7.48-6.12-13.6-13.6-13.6H80.44z"/>
			<polygon points="95.22,20.8 92.33,23.56 95.22,26.33 			"/>
			<polygon points="75.87,7.82 79.44,4.4 72.3,4.4 			"/>
			<polygon points="59.42,23.56 56.47,20.74 56.47,26.39 			"/>
			<path d="M59.88,23.12l15.5-14.83L71.3,4.4h-1.24c-7.48,0-13.6,6.12-13.6,13.6v1.87L59.88,23.12z"/>
			<path d="M91.87,24.01l-15.5,14.83L81,43.25l0.55,1.13l-0.21-1.23h0.28c7.48,0,13.6-6.12,13.6-13.6V27.2L91.87,24.01z"/>
			<path d="M70.35,43.15l-0.24,1.42l0.64-1.32l4.63-4.41l-15.5-14.83l-3.41,3.25v2.29c0,7.48,6.12,13.6,13.6,13.6H70.35z"/>
		</g>
		<path d="M88.33,47.29h-6.29l-0.42-2.48l0,0l-0.28-1.66h-1.45l-4.01-3.84l-4.01,3.84h-1.51l-0.7,4.13h-6.29
			c-0.38,0-0.68,0.3-0.68,0.68v0.37c0,0.38,0.3,0.68,0.68,0.68h24.98c0.38,0,0.68-0.3,0.68-0.68v-0.37
			C89.01,47.59,88.71,47.29,88.33,47.29z"/>
	</g>
</g>
<text transform="matrix(1 0 0 1 12.3851 68.7981)"><tspan x="0" y="0" class="st0 st1">Touch Magic</tspan><tspan x="18.94" y="11.35" class="st2 st3">Switches</tspan></text>
</svg>
