<?xml version="1.0" encoding="utf-8"?>
<!-- Generator: Adobe Illustrator 24.0.1, SVG Export Plug-In . SVG Version: 6.00 Build 0)  -->
<svg version="1.1" id="Layer_1" xmlns="http://www.w3.org/2000/svg" xmlns:xlink="http://www.w3.org/1999/xlink" x="0px" y="0px"
	 viewBox="0 0 50 50" style="enable-background:new 0 0 50 50;" xml:space="preserve">
<style type="text/css">
	.st0{fill:none;stroke:#000000;stroke-width:1.2656;stroke-linecap:round;stroke-miterlimit:10;}
</style>
<g>
	<g>
		<path class="st0" d="M22.89,37.23h13.69c1.6,0,2.9-1.3,2.9-2.9V17c0-1.6-1.3-2.9-2.9-2.9h-9.15"/>
		<path class="st0" d="M16.88,14.1H7.32c-1.6,0-2.9,1.3-2.9,2.9v17.33c0,1.6,1.3,2.9,2.9,2.9h6.18"/>
	</g>
	<path class="st0" d="M45.4,29.69h-3.89c-0.1,0-0.17-0.08-0.17-0.17V21.8c0-0.1,0.08-0.17,0.17-0.17h3.89c0.1,0,0.17,0.08,0.17,0.17
		v7.72C45.58,29.62,45.5,29.69,45.4,29.69z"/>
	<polygon class="st0" points="25.17,6.9 14.13,26.59 21.88,26.59 15.16,43.1 29.77,22.52 21.35,22.52 	"/>
</g>
</svg>
