<?xml version="1.0" encoding="utf-8"?>
<!-- Generator: Adobe Illustrator 24.0.1, SVG Export Plug-In . SVG Version: 6.00 Build 0)  -->
<svg version="1.1" id="Layer_1" xmlns="http://www.w3.org/2000/svg" xmlns:xlink="http://www.w3.org/1999/xlink" x="0px" y="0px"
	 viewBox="0 0 50 50" style="enable-background:new 0 0 50 50;" xml:space="preserve">
<style type="text/css">
	.st0{fill:none;stroke:#000000;stroke-width:1.2656;stroke-linecap:round;stroke-miterlimit:10;}
</style>
<g>
	<path class="st0" d="M30,35.5h9.42l0,0c3.89,0,7.05-3.15,7.05-7.05l0,0c0-3.89-3.15-7.05-7.05-7.05l0,0
		c-0.25,0-0.49,0.01-0.73,0.04c0-0.01,0-0.02,0-0.04c0-3.89-3.15-7.05-7.05-7.05c-1.74,0-3.33,0.63-4.55,1.67
		c-1.99-1.89-4.69-3.05-7.65-3.05l0,0c-5.26,0-9.67,3.66-10.82,8.57c-3.22,0.65-5.65,3.49-5.65,6.91l0,0c0,3.89,3.15,7.05,7.05,7.05
		h0h9.55"/>
	<line class="st0" x1="24.72" y1="37.76" x2="24.72" y2="27.71"/>
	<path class="st0" d="M20.18,32.73l3.48-4.71c0.53-0.72,1.6-0.73,2.15-0.02l3.6,4.73"/>
</g>
</svg>
