<?xml version="1.0" encoding="utf-8"?>
<!-- Generator: Adobe Illustrator 24.0.1, SVG Export Plug-In . SVG Version: 6.00 Build 0)  -->
<svg version="1.1" id="Layer_1" xmlns="http://www.w3.org/2000/svg" xmlns:xlink="http://www.w3.org/1999/xlink" x="0px" y="0px"
	 viewBox="0 0 50 50" style="enable-background:new 0 0 50 50;" xml:space="preserve">
<style type="text/css">
	.st0{fill:none;stroke:#000000;stroke-width:1.2885;stroke-linecap:round;stroke-miterlimit:10;}
</style>
<g>
	<line class="st0" x1="2.09" y1="39.91" x2="47.91" y2="39.91"/>
	<line class="st0" x1="9.43" y1="37.4" x2="40.57" y2="37.4"/>
	<path class="st0" d="M16.58,30.75L16.58,30.75c-0.97-0.97-1.45-2.32-1.34-3.66c0.04-0.47,0.17-0.92,0.35-1.36l5.01-10.69
		l5.01,10.69c0.18,0.43,0.31,0.89,0.35,1.36c0.11,1.34-0.37,2.69-1.34,3.66l0,0C22.38,32.96,18.79,32.96,16.58,30.75z"/>
	<path class="st0" d="M28.73,20.24L28.73,20.24c-0.63-0.63-0.94-1.5-0.87-2.37c0.02-0.3,0.11-0.6,0.22-0.88l3.23-6.91L34.55,17
		c0.11,0.28,0.2,0.57,0.22,0.88c0.07,0.87-0.24,1.74-0.87,2.37l0,0C32.47,21.67,30.16,21.67,28.73,20.24z"/>
</g>
</svg>
