<?xml version="1.0" encoding="utf-8"?>
<!-- Generator: Adobe Illustrator 24.0.1, SVG Export Plug-In . SVG Version: 6.00 Build 0)  -->
<svg version="1.1" id="Layer_1" xmlns="http://www.w3.org/2000/svg" xmlns:xlink="http://www.w3.org/1999/xlink" x="0px" y="0px"
	 viewBox="0 0 50 50" style="enable-background:new 0 0 50 50;" xml:space="preserve">
<style type="text/css">
	.st0{fill:none;stroke:#000000;stroke-width:1.2656;stroke-linecap:round;stroke-miterlimit:10;}
</style>
<g>
	<g>
		<path class="st0" d="M18.64,34.81h-1.07c-3.98,0-7.23-3.25-7.23-7.23V14.25c0-3.98,3.25-7.23,7.23-7.23h1.07
			c3.98,0,7.23,3.25,7.23,7.23v13.33C25.87,31.56,22.61,34.81,18.64,34.81z"/>
		<path class="st0" d="M30.07,27.15c0,6.61-5.36,11.97-11.97,11.97S6.13,33.77,6.13,27.15"/>
		<line class="st0" x1="18.1" y1="39.13" x2="18.1" y2="43.48"/>
		<line class="st0" x1="10.33" y1="43.84" x2="25.87" y2="43.84"/>
	</g>
	<g>
		<path class="st0" d="M42.18,21.51c-0.69-0.72-1.08-1.68-1.08-2.67v-4.71c0-2.82-2.29-5.11-5.11-5.11h-0.12h-0.12
			c-2.82,0-5.11,2.29-5.11,5.11v4.71c0,1-0.39,1.96-1.08,2.67l-1.69,1.75h8h8L42.18,21.51z"/>
		<path class="st0" d="M38.45,23.46c0,1.42-1.15,2.57-2.57,2.57s-2.57-1.15-2.57-2.57"/>
		<path class="st0" d="M34.69,8.58V7.35c0-0.65,0.53-1.19,1.19-1.19h0c0.65,0,1.19,0.53,1.19,1.19v1.24"/>
	</g>
</g>
</svg>
