<?xml version="1.0" encoding="utf-8"?>
<!-- Generator: Adobe Illustrator 24.0.1, SVG Export Plug-In . SVG Version: 6.00 Build 0)  -->
<svg version="1.1" id="Layer_1" xmlns="http://www.w3.org/2000/svg" xmlns:xlink="http://www.w3.org/1999/xlink" x="0px" y="0px"
	 viewBox="0 0 50 50" style="enable-background:new 0 0 50 50;" xml:space="preserve">
<style type="text/css">
	.st0{fill:none;stroke:#000000;stroke-width:1.2656;stroke-linecap:round;stroke-miterlimit:10;}
</style>
<g>
	<path class="st0" d="M31.71,13.8H6.76c-2.79,0-5.05,2.26-5.05,5.05v13.02c0,2.79,2.26,5.05,5.05,5.05h24.95
		c2.79,0,5.05-2.26,5.05-5.05V18.86C36.77,16.07,34.5,13.8,31.71,13.8z"/>
	<path class="st0" d="M45.97,34.92l-6.46-3.54c-0.38-0.21-0.62-0.61-0.62-1.04V20.4c0-0.43,0.24-0.83,0.62-1.04l6.46-3.54
		c0.79-0.43,1.76,0.14,1.76,1.04v17.01C47.73,34.78,46.76,35.35,45.97,34.92z"/>
	<path class="st0" d="M21.45,30.17c-3.83-0.71-6.86-3.86-7.41-7.72c-0.26-1.82,0.01-3.55,0.67-5.07c0.09-0.21-0.16-0.41-0.34-0.27
		c-2.34,1.82-3.79,4.72-3.57,7.97c0.3,4.4,3.79,8.05,8.18,8.54c3.6,0.4,6.84-1.27,8.69-3.97c0.13-0.19-0.08-0.43-0.29-0.33
		C25.64,30.21,23.6,30.57,21.45,30.17z"/>
</g>
</svg>
