<?xml version="1.0" encoding="utf-8"?>
<!-- Generator: Adobe Illustrator 24.0.1, SVG Export Plug-In . SVG Version: 6.00 Build 0)  -->
<svg version="1.1" id="Layer_1" xmlns="http://www.w3.org/2000/svg" xmlns:xlink="http://www.w3.org/1999/xlink" x="0px" y="0px"
	 viewBox="0 0 50 50" style="enable-background:new 0 0 50 50;" xml:space="preserve">
<style type="text/css">
	.st0{fill:none;stroke:#000000;stroke-width:1.2656;stroke-linecap:round;stroke-miterlimit:10;}
</style>
<g>
	<path class="st0" d="M12.95,27.01c4.06-1.75,8.39-2.71,12.9-2.71c4.08,0,8.02,0.79,11.74,2.23"/>
	<path class="st0" d="M44.01,18.77c-5.65-2.78-11.77-4.3-18.16-4.3c-7.04,0-13.75,1.85-19.86,5.18"/>
	<path class="st0" d="M37.59,26.53c-3.72-1.44-7.66-2.23-11.74-2.23c-4.51,0-8.84,0.96-12.9,2.71"/>
	<path class="st0" d="M21.44,35.53c1.44-0.29,2.91-0.44,4.42-0.44c1.35,0,2.67,0.13,3.97,0.36"/>
	<path class="st0" d="M26.22,35.53"/>
</g>
</svg>
