<?xml version="1.0" encoding="utf-8"?>
<!-- Generator: Adobe Illustrator 24.0.1, SVG Export Plug-In . SVG Version: 6.00 Build 0)  -->
<svg version="1.1" id="Layer_1" xmlns="http://www.w3.org/2000/svg" xmlns:xlink="http://www.w3.org/1999/xlink" x="0px" y="0px"
	 viewBox="0 0 50 50" style="enable-background:new 0 0 50 50;" xml:space="preserve">
<style type="text/css">
	.st0{fill:none;stroke:#000000;stroke-width:1.2656;stroke-linecap:round;stroke-miterlimit:10;}
</style>
<g>
	<g>
		<path class="st0" d="M10.13,33.45c-1.22-2.83-1.89-5.85-1.89-8.99c0-2.84,0.55-5.59,1.55-8.18"/>
		<path class="st0" d="M4.39,11.82c-1.94,3.94-3,8.2-3,12.65c0,4.9,1.29,9.58,3.61,13.84"/>
		<path class="st0" d="M9.8,16.29c-1.01,2.59-1.55,5.34-1.55,8.18c0,3.14,0.67,6.16,1.89,8.99"/>
		<path class="st0" d="M15.07,24.21"/>
	</g>
	<g>
		<path class="st0" d="M39.87,16.67c1.22,2.83,1.89,5.85,1.89,8.99c0,2.84-0.55,5.59-1.55,8.18"/>
		<path class="st0" d="M45.61,38.3c1.94-3.94,3-8.2,3-12.65c0-4.9-1.29-9.58-3.61-13.84"/>
		<path class="st0" d="M40.2,33.83c1.01-2.59,1.55-5.34,1.55-8.18c0-3.14-0.67-6.16-1.89-8.99"/>
		<path class="st0" d="M34.93,25.91"/>
	</g>
	<g>
		<path class="st0" d="M33.78,44.07H16.01c-1.29,0-2.34-1.05-2.34-2.34V8.27c0-1.29,1.05-2.34,2.34-2.34h17.78
			c1.29,0,2.34,1.05,2.34,2.34v33.46C36.12,43.02,35.07,44.07,33.78,44.07z"/>
		<line class="st0" x1="16.08" y1="8.8" x2="33.71" y2="8.8"/>
		<line class="st0" x1="16.08" y1="41.2" x2="33.71" y2="41.2"/>
	</g>
</g>
</svg>
