<?xml version="1.0" encoding="utf-8"?>
<!-- Generator: Adobe Illustrator 24.0.1, SVG Export Plug-In . SVG Version: 6.00 Build 0)  -->
<svg version="1.1" id="Layer_1" xmlns="http://www.w3.org/2000/svg" xmlns:xlink="http://www.w3.org/1999/xlink" x="0px" y="0px"
	 viewBox="0 0 68.52 78.65" style="enable-background:new 0 0 68.52 78.65;" xml:space="preserve">
<style type="text/css">
	.st0{font-family:'ProximaNova-Semibold';}
	.st1{font-size:12.9654px;}
	.st2{font-family:'ProximaNova-Light';}
	.st3{font-size:9.4542px;}
</style>
<g>
	<circle cx="34.26" cy="31.8" r="2.94"/>
	<path d="M44.62,2.5H23.9c-0.46,0-0.83,0.37-0.83,0.83v38.35c0,0.46,0.37,0.83,0.83,0.83h20.72c0.46,0,0.83-0.37,0.83-0.83V3.33
		C45.46,2.88,45.08,2.5,44.62,2.5z M30.51,40.22c-0.11,0-0.19-0.09-0.19-0.19s0.09-0.19,0.19-0.19c0.11,0,0.19,0.09,0.19,0.19
		S30.62,40.22,30.51,40.22z M31.76,40.22c-0.11,0-0.19-0.09-0.19-0.19s0.09-0.19,0.19-0.19c0.11,0,0.19,0.09,0.19,0.19
		S31.87,40.22,31.76,40.22z M33.01,40.22c-0.11,0-0.19-0.09-0.19-0.19s0.09-0.19,0.19-0.19s0.19,0.09,0.19,0.19
		S33.12,40.22,33.01,40.22z M34.26,40.22c-0.11,0-0.19-0.09-0.19-0.19s0.09-0.19,0.19-0.19c0.11,0,0.19,0.09,0.19,0.19
		S34.37,40.22,34.26,40.22z M35.51,40.22c-0.11,0-0.19-0.09-0.19-0.19s0.09-0.19,0.19-0.19c0.11,0,0.19,0.09,0.19,0.19
		S35.62,40.22,35.51,40.22z M36.76,40.22c-0.11,0-0.19-0.09-0.19-0.19s0.09-0.19,0.19-0.19c0.11,0,0.19,0.09,0.19,0.19
		S36.87,40.22,36.76,40.22z M34.26,35.25c-1.91,0-3.45-1.55-3.45-3.45c0-1.91,1.55-3.45,3.45-3.45c1.91,0,3.45,1.55,3.45,3.45
		C37.72,33.7,36.17,35.25,34.26,35.25z M38.01,40.22c-0.11,0-0.19-0.09-0.19-0.19s0.09-0.19,0.19-0.19s0.19,0.09,0.19,0.19
		S38.12,40.22,38.01,40.22z M44.68,21.44c0,0-2.44,2.22-10.42,2.22c-7.98,0-10.42-2.22-10.42-2.22V5.42h20.84V21.44z"/>
	<circle cx="34.26" cy="14.18" r="2.62"/>
</g>
<text transform="matrix(1 0 0 1 21.9602 62.2933)"><tspan x="0" y="0" class="st0 st1">Vibe</tspan><tspan x="-20.3" y="11.35" class="st2 st3">Video Door Bell </tspan></text>
</svg>
