<?xml version="1.0" encoding="utf-8"?>
<!-- Generator: Adobe Illustrator 24.0.1, SVG Export Plug-In . SVG Version: 6.00 Build 0)  -->
<svg version="1.1" id="Layer_1" xmlns="http://www.w3.org/2000/svg" xmlns:xlink="http://www.w3.org/1999/xlink" x="0px" y="0px"
	 viewBox="0 0 60 60" style="enable-background:new 0 0 60 60;" xml:space="preserve">
<style type="text/css">
	.st0{fill:#010101;}
</style>
<g>
	<circle class="st0" cx="30" cy="42.05" r="1.32"/>
	<path class="st0" d="M35.93,25.28H24.07c-0.26,0-0.48,0.21-0.48,0.48v21.95c0,0.26,0.21,0.48,0.48,0.48h11.86
		c0.26,0,0.48-0.21,0.48-0.48V25.76C36.41,25.5,36.19,25.28,35.93,25.28z M27.85,46.87c-0.06,0-0.11-0.05-0.11-0.11
		s0.05-0.11,0.11-0.11c0.06,0,0.11,0.05,0.11,0.11S27.91,46.87,27.85,46.87z M28.57,46.87c-0.06,0-0.11-0.05-0.11-0.11
		s0.05-0.11,0.11-0.11c0.06,0,0.11,0.05,0.11,0.11S28.63,46.87,28.57,46.87z M29.28,46.87c-0.06,0-0.11-0.05-0.11-0.11
		s0.05-0.11,0.11-0.11c0.06,0,0.11,0.05,0.11,0.11S29.35,46.87,29.28,46.87z M30,46.87c-0.06,0-0.11-0.05-0.11-0.11
		s0.05-0.11,0.11-0.11c0.06,0,0.11,0.05,0.11,0.11S30.06,46.87,30,46.87z M30.72,46.87c-0.06,0-0.11-0.05-0.11-0.11
		s0.05-0.11,0.11-0.11c0.06,0,0.11,0.05,0.11,0.11S30.78,46.87,30.72,46.87z M31.43,46.87c-0.06,0-0.11-0.05-0.11-0.11
		s0.05-0.11,0.11-0.11c0.06,0,0.11,0.05,0.11,0.11S31.49,46.87,31.43,46.87z M30,44.02c-1.09,0-1.98-0.88-1.98-1.98
		s0.88-1.98,1.98-1.98c1.09,0,1.98,0.88,1.98,1.98S31.09,44.02,30,44.02z M32.15,46.87c-0.06,0-0.11-0.05-0.11-0.11
		s0.05-0.11,0.11-0.11c0.06,0,0.11,0.05,0.11,0.11S32.21,46.87,32.15,46.87z M35.96,36.12c0,0-1.4,1.27-5.96,1.27
		c-4.57,0-5.96-1.27-5.96-1.27v-9.17h11.93V36.12z"/>
	<circle class="st0" cx="30" cy="31.97" r="1.5"/>
</g>
</svg>
