<?xml version="1.0" encoding="utf-8"?>
<!-- Generator: Adobe Illustrator 24.0.1, SVG Export Plug-In . SVG Version: 6.00 Build 0)  -->
<svg version="1.1" id="Layer_1" xmlns="http://www.w3.org/2000/svg" xmlns:xlink="http://www.w3.org/1999/xlink" x="0px" y="0px"
	 viewBox="0 0 60 60" style="enable-background:new 0 0 60 60;" xml:space="preserve">
<style type="text/css">
	.st0{fill:#010101;}
</style>
<g>
	<path class="st0" d="M46.72,30.71H31.39c-0.24-0.76-0.95-1.31-1.8-1.29c-0.94,0.02-1.73,0.78-1.79,1.72
		c-0.07,1.07,0.78,1.95,1.83,1.95c0.82,0,1.52-0.54,1.75-1.29h15.32c0.08,0,0.15-0.07,0.15-0.15v-0.79
		C46.87,30.77,46.8,30.71,46.72,30.71z"/>
	<path class="st0" d="M30.1,36.07h-1.03c-0.18,0-0.33,0.15-0.33,0.33v1.03c0,0.18,0.15,0.33,0.33,0.33h1.03
		c0.18,0,0.33-0.15,0.33-0.33V36.4C30.43,36.22,30.28,36.07,30.1,36.07z"/>
	<path class="st0" d="M34.06,8.47h-8.84c-0.05,0-0.08,0.04-0.08,0.08v39.28c0,0.19,0.15,0.34,0.34,0.34h8.32
		c0.19,0,0.34-0.15,0.34-0.34V8.56C34.14,8.51,34.11,8.47,34.06,8.47z M30.28,41.44v1.74c0,0.38-0.31,0.7-0.7,0.7
		c-0.38,0-0.7-0.31-0.7-0.7v-1.74c-0.28-0.21-0.46-0.54-0.46-0.92c0-0.64,0.52-1.15,1.15-1.15c0.64,0,1.15,0.52,1.15,1.15
		C30.74,40.89,30.56,41.22,30.28,41.44z M29.59,38.75c-1.01,0-1.84-0.82-1.84-1.84c0-1.01,0.82-1.84,1.84-1.84
		c1.01,0,1.84,0.82,1.84,1.84C31.42,37.93,30.6,38.75,29.59,38.75z M29.64,34.48c-1.78,0-3.23-1.45-3.23-3.23
		c0-1.78,1.45-3.23,3.23-3.23c1.78,0,3.23,1.45,3.23,3.23C32.87,33.03,31.42,34.48,29.64,34.48z M33.71,23.69
		c0,0.04-0.02,0.08-0.06,0.1l-7.91,4.51c-0.08,0.05-0.18-0.01-0.18-0.1V9.05c0-0.05,0.04-0.08,0.08-0.08h7.98
		c0.05,0,0.08,0.04,0.08,0.08V23.69z"/>
	<g>
		<path class="st0" d="M26.93,13.8h-0.07v-0.7l-0.13,0.14l-0.04-0.04l0.18-0.19h0.06V13.8z"/>
		<path class="st0" d="M29.8,13.8h-0.53v-0.06c0.06-0.05,0.11-0.09,0.15-0.13c0.04-0.03,0.08-0.07,0.12-0.11s0.08-0.08,0.1-0.11
			c0.02-0.03,0.04-0.06,0.06-0.09c0.02-0.03,0.02-0.06,0.02-0.09c0-0.05-0.02-0.09-0.05-0.12c-0.04-0.03-0.08-0.04-0.13-0.04
			c-0.05,0-0.09,0.01-0.13,0.03c-0.04,0.02-0.07,0.04-0.09,0.08l-0.05-0.04c0.03-0.04,0.07-0.07,0.11-0.09s0.1-0.03,0.15-0.03
			c0.07,0,0.12,0.02,0.18,0.06c0.05,0.04,0.08,0.09,0.08,0.17c0,0.04-0.01,0.08-0.03,0.13c-0.02,0.04-0.05,0.09-0.09,0.13
			c-0.04,0.05-0.09,0.09-0.13,0.12c-0.04,0.04-0.1,0.08-0.17,0.14h0.42V13.8z"/>
		<path class="st0" d="M32.38,13.82c-0.06,0-0.12-0.01-0.16-0.04c-0.05-0.03-0.08-0.06-0.11-0.1l0.05-0.04
			c0.05,0.07,0.13,0.11,0.22,0.11c0.06,0,0.11-0.02,0.15-0.05c0.04-0.03,0.05-0.07,0.05-0.12c0-0.06-0.02-0.1-0.06-0.12
			c-0.04-0.03-0.09-0.04-0.15-0.04c-0.03,0-0.06,0-0.07,0v-0.06c0.01,0,0.03,0,0.07,0c0.06,0,0.11-0.01,0.14-0.04
			c0.04-0.03,0.06-0.06,0.06-0.11c0-0.05-0.02-0.09-0.06-0.11c-0.04-0.03-0.08-0.04-0.14-0.04c-0.08,0-0.15,0.03-0.21,0.1
			l-0.04-0.04c0.07-0.08,0.15-0.12,0.26-0.12c0.07,0,0.13,0.02,0.18,0.06c0.05,0.04,0.07,0.09,0.07,0.15c0,0.04-0.01,0.07-0.03,0.1
			c-0.02,0.03-0.04,0.05-0.07,0.06c-0.02,0.01-0.05,0.02-0.08,0.03c0.04,0,0.08,0.02,0.12,0.06c0.04,0.03,0.06,0.08,0.06,0.14
			c0,0.07-0.02,0.12-0.07,0.16C32.53,13.8,32.46,13.82,32.38,13.82z"/>
		<path class="st0" d="M27.15,16.68h-0.07v-0.22h-0.38V16.4l0.35-0.52h0.09v0.52h0.12v0.06h-0.12V16.68z M27.08,16.4v-0.45
			l-0.31,0.45H27.08z"/>
		<path class="st0" d="M29.53,16.69c-0.12,0-0.21-0.04-0.27-0.13l0.05-0.05c0.05,0.08,0.13,0.11,0.22,0.11
			c0.06,0,0.11-0.02,0.14-0.06c0.04-0.04,0.06-0.08,0.06-0.14c0-0.06-0.02-0.11-0.06-0.14c-0.04-0.04-0.08-0.05-0.14-0.05
			c-0.07,0-0.14,0.03-0.19,0.08l-0.05-0.02v-0.42h0.46v0.06h-0.39v0.31c0.05-0.05,0.11-0.07,0.19-0.07c0.07,0,0.13,0.02,0.18,0.07
			c0.05,0.05,0.07,0.11,0.07,0.19c0,0.08-0.03,0.14-0.08,0.19C29.67,16.67,29.6,16.69,29.53,16.69z"/>
		<path class="st0" d="M32.4,16.69c-0.04,0-0.08-0.01-0.11-0.02c-0.03-0.02-0.06-0.04-0.08-0.06c-0.02-0.03-0.04-0.06-0.06-0.09
			c-0.01-0.04-0.03-0.07-0.03-0.11c-0.01-0.04-0.01-0.08-0.01-0.13c0-0.07,0.01-0.14,0.03-0.2c0.02-0.06,0.05-0.11,0.1-0.15
			c0.05-0.04,0.11-0.06,0.18-0.06c0.09,0,0.16,0.03,0.22,0.1l-0.04,0.05c-0.05-0.06-0.1-0.09-0.18-0.09c-0.04,0-0.08,0.01-0.11,0.03
			c-0.03,0.02-0.06,0.05-0.07,0.08c-0.02,0.03-0.03,0.07-0.04,0.11c-0.01,0.04-0.01,0.08-0.01,0.13c0,0.02,0,0.03,0,0.04
			c0.02-0.03,0.05-0.06,0.09-0.09c0.04-0.03,0.09-0.04,0.14-0.04c0.08,0,0.14,0.02,0.19,0.07c0.05,0.04,0.07,0.11,0.07,0.19
			c0,0.07-0.02,0.13-0.07,0.18C32.55,16.67,32.48,16.69,32.4,16.69z M32.4,16.63c0.06,0,0.11-0.02,0.15-0.06
			c0.04-0.04,0.05-0.08,0.05-0.13c0-0.06-0.02-0.11-0.06-0.14c-0.04-0.03-0.09-0.05-0.14-0.05c-0.04,0-0.08,0.01-0.12,0.04
			c-0.04,0.03-0.07,0.06-0.09,0.1c0,0.04,0.01,0.08,0.03,0.11c0.01,0.04,0.04,0.07,0.07,0.09C32.31,16.61,32.35,16.63,32.4,16.63z"
			/>
		<path class="st0" d="M26.89,19.55h-0.08l0.34-0.74H26.7v-0.06h0.52v0.05L26.89,19.55z"/>
		<path class="st0" d="M29.66,19.5c-0.05,0.04-0.12,0.06-0.19,0.06s-0.14-0.02-0.19-0.06c-0.05-0.04-0.08-0.09-0.08-0.15
			c0-0.05,0.02-0.1,0.06-0.13c0.04-0.04,0.09-0.06,0.14-0.08c-0.05-0.01-0.1-0.04-0.13-0.07c-0.04-0.03-0.05-0.07-0.05-0.12
			c0-0.07,0.03-0.12,0.08-0.15c0.05-0.04,0.11-0.05,0.18-0.05c0.07,0,0.13,0.02,0.18,0.05s0.08,0.09,0.08,0.15
			c0,0.05-0.02,0.09-0.05,0.12c-0.04,0.03-0.08,0.06-0.13,0.07c0.06,0.02,0.1,0.04,0.14,0.08c0.04,0.04,0.06,0.08,0.06,0.13
			C29.74,19.41,29.71,19.46,29.66,19.5z M29.47,19.5c0.05,0,0.1-0.01,0.14-0.04s0.06-0.07,0.06-0.11c0-0.03-0.01-0.05-0.02-0.08
			c-0.02-0.02-0.04-0.04-0.06-0.05c-0.02-0.01-0.05-0.02-0.07-0.03c-0.02-0.01-0.04-0.01-0.05-0.01c-0.02,0-0.03,0.01-0.05,0.01
			c-0.02,0.01-0.04,0.02-0.07,0.03c-0.02,0.01-0.04,0.03-0.06,0.05c-0.02,0.02-0.02,0.05-0.02,0.08c0,0.05,0.02,0.08,0.06,0.11
			C29.36,19.49,29.41,19.5,29.47,19.5z M29.47,19.11c0.02,0,0.03-0.01,0.05-0.01c0.02-0.01,0.04-0.01,0.06-0.03
			c0.02-0.01,0.04-0.03,0.06-0.05c0.01-0.02,0.02-0.04,0.02-0.07c0-0.05-0.02-0.08-0.05-0.11c-0.04-0.03-0.08-0.04-0.14-0.04
			c-0.05,0-0.1,0.01-0.14,0.04c-0.04,0.03-0.05,0.06-0.05,0.11c0,0.03,0.01,0.05,0.02,0.07c0.01,0.02,0.03,0.04,0.06,0.05
			c0.02,0.01,0.04,0.02,0.06,0.03C29.43,19.1,29.45,19.1,29.47,19.11z"/>
		<path class="st0" d="M32.3,19.56c-0.09,0-0.16-0.03-0.22-0.1l0.04-0.05c0.05,0.06,0.1,0.09,0.17,0.09c0.04,0,0.08-0.01,0.11-0.03
			c0.03-0.02,0.06-0.05,0.07-0.08c0.02-0.03,0.03-0.07,0.04-0.11c0.01-0.04,0.01-0.08,0.01-0.13v-0.04
			c-0.02,0.03-0.05,0.06-0.1,0.09c-0.04,0.03-0.09,0.04-0.14,0.04c-0.08,0-0.14-0.02-0.19-0.07c-0.05-0.04-0.07-0.11-0.07-0.19
			c0-0.07,0.02-0.13,0.07-0.18c0.05-0.05,0.11-0.08,0.2-0.08c0.04,0,0.08,0.01,0.11,0.02c0.03,0.02,0.06,0.04,0.08,0.06
			c0.02,0.03,0.04,0.06,0.06,0.09c0.01,0.04,0.03,0.07,0.03,0.11c0.01,0.04,0.01,0.08,0.01,0.13c0,0.04,0,0.08-0.01,0.12
			c-0.01,0.04-0.02,0.08-0.03,0.11c-0.02,0.04-0.04,0.07-0.06,0.09c-0.02,0.03-0.05,0.05-0.09,0.06
			C32.38,19.55,32.34,19.56,32.3,19.56z M32.31,19.18c0.04,0,0.08-0.01,0.12-0.04c0.04-0.03,0.07-0.06,0.09-0.1
			c0-0.04-0.01-0.08-0.03-0.11c-0.01-0.04-0.04-0.07-0.07-0.09c-0.03-0.03-0.07-0.04-0.12-0.04c-0.06,0-0.11,0.02-0.15,0.06
			c-0.04,0.04-0.05,0.08-0.05,0.13c0,0.06,0.02,0.11,0.06,0.14C32.21,19.17,32.25,19.18,32.31,19.18z"/>
		<path class="st0" d="M26.89,21.94h-0.04l0.01-0.14l-0.12,0.08l-0.02-0.04l0.12-0.06l-0.12-0.06l0.02-0.04l0.12,0.08l-0.01-0.14
			h0.04l-0.01,0.14L27,21.67l0.02,0.04l-0.13,0.06l0.13,0.06L27,21.88l-0.12-0.08L26.89,21.94z"/>
		<path class="st0" d="M29.73,22.4c-0.04,0.02-0.08,0.04-0.14,0.04c-0.05,0-0.1-0.01-0.14-0.04c-0.04-0.02-0.07-0.06-0.09-0.1
			s-0.04-0.08-0.05-0.13c-0.01-0.05-0.02-0.1-0.02-0.15c0-0.05,0.01-0.1,0.02-0.15c0.01-0.05,0.03-0.09,0.05-0.13
			c0.02-0.04,0.05-0.07,0.09-0.1c0.04-0.02,0.09-0.04,0.14-0.04c0.05,0,0.1,0.01,0.14,0.04c0.04,0.02,0.07,0.06,0.09,0.1
			c0.02,0.04,0.04,0.08,0.05,0.13c0.01,0.05,0.02,0.1,0.02,0.15c0,0.05-0.01,0.1-0.02,0.14c-0.01,0.05-0.03,0.09-0.05,0.13
			C29.8,22.34,29.77,22.37,29.73,22.4z M29.6,22.37c0.04,0,0.07-0.01,0.1-0.03c0.03-0.02,0.05-0.05,0.07-0.08
			c0.02-0.03,0.03-0.07,0.04-0.11c0.01-0.04,0.01-0.08,0.01-0.13c0-0.04,0-0.09-0.01-0.13c-0.01-0.04-0.02-0.08-0.04-0.11
			c-0.02-0.03-0.04-0.06-0.07-0.08s-0.06-0.03-0.1-0.03c-0.04,0-0.08,0.01-0.11,0.03s-0.05,0.05-0.07,0.08
			c-0.02,0.03-0.03,0.07-0.04,0.11c-0.01,0.04-0.01,0.08-0.01,0.13c0,0.04,0,0.09,0.01,0.13c0.01,0.04,0.02,0.08,0.04,0.11
			c0.02,0.03,0.04,0.06,0.07,0.08C29.52,22.36,29.56,22.37,29.6,22.37z"/>
		<path class="st0" d="M32.16,22.42H32.1l0.08-0.22h-0.14l-0.08,0.22h-0.06l0.08-0.22h-0.13l0.02-0.05H32l0.08-0.25h-0.14l0.01-0.05
			h0.14l0.07-0.22h0.06l-0.07,0.22h0.14l0.07-0.22h0.06l-0.08,0.22h0.13l-0.01,0.05h-0.14l-0.09,0.25h0.14l-0.02,0.05h-0.14
			L32.16,22.42z M32.19,22.15l0.09-0.25h-0.14l-0.08,0.25H32.19z"/>
	</g>
</g>
</svg>
