<?xml version="1.0" encoding="utf-8"?>
<!-- Generator: Adobe Illustrator 24.0.1, SVG Export Plug-In . SVG Version: 6.00 Build 0)  -->
<svg version="1.1" id="Layer_1" xmlns="http://www.w3.org/2000/svg" xmlns:xlink="http://www.w3.org/1999/xlink" x="0px" y="0px"
	 viewBox="0 0 60 60" style="enable-background:new 0 0 60 60;" xml:space="preserve">
<style type="text/css">
	.st0{fill:#010101;}
</style>
<g>
	<g>
		<path class="st0" d="M26.11,39.19c-0.44,0-0.8,0.36-0.8,0.8c0,0.44,0.36,0.8,0.8,0.8c0.44,0,0.8-0.36,0.8-0.8
			C26.91,39.55,26.55,39.19,26.11,39.19z"/>
		<path class="st0" d="M18.86,39.19c-0.44,0-0.8,0.36-0.8,0.8c0,0.44,0.36,0.8,0.8,0.8c0.44,0,0.8-0.36,0.8-0.8
			C19.66,39.55,19.3,39.19,18.86,39.19z"/>
		<path class="st0" d="M11.61,39.19c-0.44,0-0.8,0.36-0.8,0.8c0,0.44,0.36,0.8,0.8,0.8c0.44,0,0.8-0.36,0.8-0.8
			C12.41,39.55,12.05,39.19,11.61,39.19z"/>
		<path class="st0" d="M31.63,32.12H6.1c-0.65,0-1.18,0.53-1.18,1.18v13.36c0,0.65,0.53,1.18,1.18,1.18h25.54
			c0.65,0,1.18-0.53,1.18-1.18V33.3C32.81,32.65,32.28,32.12,31.63,32.12z M11.61,41.4c-0.78,0-1.41-0.63-1.41-1.41
			c0-0.78,0.63-1.41,1.41-1.41c0.78,0,1.41,0.63,1.41,1.41C13.02,40.77,12.39,41.4,11.61,41.4z M18.86,41.4
			c-0.78,0-1.41-0.63-1.41-1.41c0-0.78,0.63-1.41,1.41-1.41c0.78,0,1.41,0.63,1.41,1.41C20.27,40.77,19.64,41.4,18.86,41.4z
			 M26.11,41.4c-0.78,0-1.41-0.63-1.41-1.41c0-0.78,0.63-1.41,1.41-1.41c0.78,0,1.41,0.63,1.41,1.41
			C27.52,40.77,26.89,41.4,26.11,41.4z"/>
	</g>
	<g>
		<g>
			<polygon class="st0" points="44.47,42.34 52.99,34.21 44.47,26.09 35.94,34.21 			"/>
			<path class="st0" d="M46.97,23.69l-2.24,2.13l8.51,8.14l1.84-1.75v-1.06c0-4.11-3.36-7.46-7.46-7.46H46.97z"/>
			<polygon class="st0" points="55.08,32.69 53.5,34.21 55.08,35.73 			"/>
			<polygon class="st0" points="44.47,25.57 46.42,23.69 42.51,23.69 			"/>
			<polygon class="st0" points="35.43,34.21 33.81,32.66 33.81,35.76 			"/>
			<path class="st0" d="M35.69,33.97l8.51-8.14l-2.24-2.13h-0.68c-4.11,0-7.46,3.36-7.46,7.46v1.02L35.69,33.97z"/>
			<path class="st0" d="M53.24,34.45l-8.51,8.14l2.54,2.42l0.3,0.62l-0.11-0.67h0.15c4.11,0,7.46-3.36,7.46-7.46v-1.29L53.24,34.45z
				"/>
			<path class="st0" d="M41.43,44.96l-0.13,0.78l0.35-0.72l2.54-2.42l-8.51-8.14l-1.87,1.79v1.26c0,4.11,3.36,7.46,7.46,7.46H41.43z
				"/>
		</g>
		<path class="st0" d="M51.3,47.23h-3.45l-0.23-1.36l0,0l-0.15-0.91h-0.8l-2.2-2.11l-2.2,2.11h-0.83l-0.39,2.27h-3.45
			c-0.21,0-0.37,0.17-0.37,0.37v0.2c0,0.21,0.17,0.37,0.37,0.37H51.3c0.21,0,0.37-0.17,0.37-0.37v-0.2
			C51.68,47.4,51.51,47.23,51.3,47.23z"/>
	</g>
</g>
</svg>
